<?xml version="1.0" encoding="utf-8"?>
<!-- Generator: Adobe Illustrator 25.0.0, SVG Export Plug-In . SVG Version: 6.00 Build 0)  -->
<svg version="1.1" id="图层_2" xmlns="http://www.w3.org/2000/svg" xmlns:xlink="http://www.w3.org/1999/xlink" x="0px" y="0px"
	 viewBox="0 0 2880 248" style="enable-background:new 0 0 2880 248;" xml:space="preserve">
<style type="text/css">
	.st0{fill:#0199C9;}
	.st1{fill:#0074A7;}
	.st2{fill:#0085B9;}
	.st3{fill:#007FB3;}
	.st4{fill:#0093C5;}
	.st5{fill:#006D9E;}
	.st6{fill:#0090C2;}
	.st7{fill:#0186BC;}
	.st8{fill:#0098C8;}
	.st9{fill:#0098CA;}
	.st10{fill:#0083B8;}
	.st11{fill:#0080B6;}
	.st12{fill:#0289BE;}
	.st13{fill:#008CC0;}
	.st14{fill:#0091C3;}
	.st15{clip-path:url(#SVGID_2_);}
	.st16{fill:#744D99;}
	.st17{fill:#815297;}
	.st18{fill:#8E5795;}
	.st19{fill:#975A94;}
	.st20{fill:#8A5596;}
	.st21{fill:#AE6290;}
	.st22{fill:#B3648F;}
	.st23{fill:#C66B8D;}
	.st24{fill:#B26490;}
	.st25{fill:#F27B86;}
	.st26{fill:#DA7389;}
	.st27{fill:#F57C85;}
	.st28{fill:#FF8484;}
	.st29{fill:#F87D85;}
	.st30{fill:#FF9183;}
	.st31{fill:#FE9783;}
	.st32{fill:#FE9F82;}
	.st33{fill:#FDBB81;}
	.st34{fill:#FDC381;}
	.st35{fill:#FDD380;}
	.st36{fill:#FDD280;}
	.st37{fill:#FDDC7F;}
	.st38{fill:#FCE57F;}
	.st39{fill:#FCED7E;}
	.st40{fill:#00B368;}
	.st41{fill:#FFFFFF;}
	.st42{display:none;}
	.st43{display:inline;fill:#FFFFFF;}
</style>
<g>
	<polygon class="st0" points="0,0 303,190 390.75,0 	"/>
	<polygon class="st1" points="306.62,248 303,190 376.19,248 	"/>
	<polygon class="st2" points="0,0 303,190 306.62,248 0,248 	"/>
	<polygon class="st3" points="450.62,0 581.67,248 376.19,248 303,190 390.75,0 	"/>
	<polygon class="st4" points="937.63,0 968.37,95 825.99,248 581.67,248 450.62,0 	"/>
	<polygon class="st5" points="1013.67,248 968.37,95 825.99,248 	"/>
	<polygon class="st6" points="937.63,0 994.26,0 968.37,95 	"/>
	<polygon class="st7" points="1167.38,0 1227,141 968.37,95 994.26,0 	"/>
	<polygon class="st8" points="1157.67,248 1227,141 968.37,95 1013.67,248 	"/>
	<polygon class="st9" points="1346.98,0 1227,141 1167.38,0 	"/>
	<polygon class="st10" points="1338.89,248 1227,141 1157.67,248 	"/>
	<polygon class="st11" points="1591.29,0 1625.27,171.5 1520.1,248 1338.89,248 1227,141 1346.98,0 	"/>
	<polygon class="st6" points="1766.03,0 1625.27,171.5 1591.29,0 	"/>
	<polygon class="st12" points="1698.08,248 1625.27,171.5 1520.1,248 	"/>
	<polygon class="st13" points="1869.58,141 1882.53,248 1698.08,248 1625.27,171.5 	"/>
	<polygon class="st11" points="1889,0 1869.58,141 1625.27,171.5 1766.03,0 	"/>
	<polygon class="st2" points="2507.07,0 1869.58,141 1889,0 	"/>
	<polygon class="st6" points="2096.1,248 1869.58,141 1882.53,248 	"/>
	<polygon class="st7" points="2880,37.45 2880,0 2507.07,0 	"/>
	<polygon class="st6" points="2350.12,248 2507.07,0 2880,37.45 2528.1,248 	"/>
	<polygon class="st14" points="2880,248 2880,37.45 2528.1,248 	"/>
	<polygon class="st4" points="2096.1,248 2350.12,248 2507.07,0 1869.58,141 	"/>
</g>
<g>
	<g>
		<defs>
			
				<ellipse id="SVGID_1_" transform="matrix(0.9813 -0.1924 0.1924 0.9813 -16.9707 72.2874)" cx="363.74" cy="123.53" rx="295.5" ry="65.03"/>
		</defs>
		<clipPath id="SVGID_2_">
			<use xlink:href="#SVGID_1_"  style="overflow:visible;"/>
		</clipPath>
		<g class="st15">
			<polygon class="st16" points="76.26,129.9 113.73,162.86 86.87,203.78 46.86,173.64 			"/>
			<polygon class="st17" points="136.17,107.3 140.1,170.86 111.93,165.53 76.26,129.9 			"/>
			<path class="st18" d="M162.89,219.88c-0.13-4.62-15.31-54.36-15.31-54.36l-39.54-3.87L83.2,201.01L162.89,219.88z"/>
			<polygon class="st19" points="204.86,125.61 130.97,140.1 135.73,164.36 169.14,184.55 			"/>
			<polygon class="st20" points="123.95,104.27 130.97,140.1 208.08,142.03 225.46,84.37 			"/>
			<polygon class="st21" points="168.1,222.73 231.07,215.81 222.88,174.01 195.32,163.91 144.92,169.92 154.68,221.49 			"/>
			<polygon class="st22" points="209.37,77.45 212.06,128.82 300.87,101.36 306.75,48.28 			"/>
			<polygon class="st23" points="231.03,227.45 311.66,207.76 317.46,174.07 294.71,152.95 240.97,163.49 222.88,174.01 			"/>
			<polygon class="st24" points="177.71,141.27 174.49,166.39 222.88,174.01 272.87,157.24 252.91,116.19 211.66,121.04 			"/>
			<polygon class="st25" points="324.33,209.15 410.17,192.33 409.43,152.94 360.81,150.07 317.46,174.07 299.52,210.73 			"/>
			<polygon class="st26" points="252.64,116.25 261.42,161.08 300.91,158.71 335.68,128.64 302.63,85.52 			"/>
			<polygon class="st27" points="299.85,56.61 365.54,43.73 381.82,75.42 337.89,96.43 288.61,94.14 			"/>
			<polygon class="st28" points="380.46,119.86 328.84,134.56 303.44,94.66 381.82,75.42 402.78,95.34 			"/>
			<polygon class="st29" points="299.01,159.09 314.52,180.07 387.45,153.76 390.9,108.39 326.27,130.88 			"/>
			<polygon class="st30" points="372.57,77.86 365.54,43.73 462.57,24.71 478.49,34.76 461.84,60.5 425.75,97.81 393.34,105.71 			
				"/>
			<polygon class="st31" points="407.19,192.91 492.28,176.23 489.97,117 407.08,141 369.04,150.56 			"/>
			<polygon class="st32" points="379.02,112.52 368.71,150.85 490.95,133.86 470.53,89.03 443.79,79.16 			"/>
			<polygon class="st33" points="555.75,156.03 480.36,170.81 473.59,136.27 477.95,105.33 543.9,95.57 			"/>
			<polygon class="st34" points="493.91,22.44 453.73,34.97 431.12,85.69 477.15,111.05 539.56,96.22 519.55,26.71 			"/>
			<polygon class="st35" points="511.61,33.69 592.23,17.89 607.3,55.24 532.1,70.33 			"/>
			<polygon class="st36" points="621.93,129.88 536.84,146.56 527.53,99.07 593.94,78.01 631.35,86.96 			"/>
			<polygon class="st37" points="527.63,62.33 527.92,101.03 604.45,80.53 616.81,64.23 602.68,43.78 			"/>
			<polygon class="st38" points="600.34,38 659.77,26.35 667.17,79.93 593.61,83.43 			"/>
			<polygon class="st39" points="624.24,119.35 660.68,102.13 654.38,70.04 593.32,82.78 			"/>
		</g>
	</g>
	<g>
		<g>
			<g>
				<g>
					<path class="st40" d="M103.83,119.88l4.51-5.17c4.26,4.42,10.17,7.33,16.33,7.33c7.77,0,12.37-3.87,12.37-9.62
						c0-6.04-4.29-7.97-9.87-10.41l-8.5-3.75c-5.51-2.35-11.98-6.53-11.98-15.24c0-9.04,7.88-15.71,18.63-15.71
						c7.01,0,13.27,3.04,17.42,7.33l-3.99,4.84c-3.62-3.42-7.96-5.55-13.43-5.55c-6.64,0-11.03,3.35-11.03,8.64
						c0,5.7,5.16,7.83,9.8,9.79l8.43,3.65c6.85,2.94,12.19,7.02,12.19,15.82c0,9.35-7.73,16.82-20.17,16.82
						C116.23,128.66,109,125.27,103.83,119.88z"/>
					<path class="st40" d="M156.27,68.4h9.07l11.34,31.62c1.42,4.04,2.78,8.22,4.21,12.33h0.36c1.42-4.11,2.67-8.29,4.09-12.33
						l11.21-31.62h9.07v59.18h-7V95c0-5.15,0.58-12.27,0.96-17.5h-0.36l-4.7,13.5l-11.15,30.61h-4.99l-11.2-30.61l-4.69-13.5h-0.36
						c0.38,5.23,0.96,12.35,0.96,17.5v32.58h-6.82V68.4z"/>
					<path class="st40" d="M233.98,68.4h8.5l20.02,59.18h-7.98L244.2,94.53c-2.13-6.62-4.02-13.11-5.92-19.94h-0.36
						c-1.83,6.86-3.73,13.33-5.86,19.94l-10.43,33.05h-7.66L233.98,68.4z M224.49,103.55h27.25v6.01h-27.25V103.55z"/>
					<path class="st40" d="M270.86,68.4h18.53c12.05,0,20.71,4.33,20.71,16.66c0,11.82-8.65,17.51-20.71,17.51h-11v25.01h-7.53V68.4
						z M288.31,96.46c9.21,0,14.28-3.73,14.28-11.4c0-7.78-5.07-10.55-14.28-10.55h-9.92v21.95H288.31z M287.9,100.51l5.9-3.9
						l18.06,30.97h-8.54L287.9,100.51z"/>
					<path class="st40" d="M334.47,74.78h-17.9V68.4h43.33v6.37H342v52.8h-7.53V74.78z"/>
				</g>
			</g>
			<g>
				<g>
					<path class="st41" d="M108.21,119.88l4.51-5.17c4.26,4.42,10.17,7.33,16.33,7.33c7.77,0,12.37-3.87,12.37-9.62
						c0-6.04-4.29-7.97-9.87-10.41l-8.5-3.75c-5.51-2.35-11.98-6.53-11.98-15.24c0-9.04,7.88-15.71,18.63-15.71
						c7.01,0,13.27,3.04,17.42,7.33l-3.99,4.84c-3.62-3.42-7.96-5.55-13.43-5.55c-6.64,0-11.03,3.35-11.03,8.64
						c0,5.7,5.16,7.83,9.8,9.79l8.43,3.65c6.85,2.94,12.19,7.02,12.19,15.82c0,9.35-7.73,16.82-20.17,16.82
						C120.6,128.66,113.38,125.27,108.21,119.88z"/>
					<path class="st41" d="M160.64,68.4h9.07l11.34,31.62c1.42,4.04,2.78,8.22,4.21,12.33h0.36c1.42-4.11,2.67-8.29,4.09-12.33
						l11.21-31.62h9.07v59.18h-7V95c0-5.15,0.58-12.27,0.96-17.5h-0.36l-4.7,13.5l-11.15,30.61h-4.99l-11.2-30.61l-4.69-13.5h-0.36
						c0.38,5.23,0.96,12.35,0.96,17.5v32.58h-6.82V68.4z"/>
					<path class="st41" d="M238.36,68.4h8.5l20.02,59.18h-7.98l-10.32-33.05c-2.13-6.62-4.02-13.11-5.92-19.94h-0.36
						c-1.83,6.86-3.73,13.33-5.86,19.94L226,127.58h-7.66L238.36,68.4z M228.86,103.55h27.25v6.01h-27.25V103.55z"/>
					<path class="st41" d="M275.23,68.4h18.53c12.05,0,20.71,4.33,20.71,16.66c0,11.82-8.65,17.51-20.71,17.51h-11v25.01h-7.53V68.4
						z M292.68,96.46c9.21,0,14.28-3.73,14.28-11.4c0-7.78-5.07-10.55-14.28-10.55h-9.92v21.95H292.68z M292.28,100.51l5.9-3.9
						l18.06,30.97h-8.54L292.28,100.51z"/>
					<path class="st41" d="M338.85,74.78h-17.9V68.4h43.33v6.37h-17.9v52.8h-7.53V74.78z"/>
				</g>
			</g>
		</g>
		<g>
			<g>
				<path class="st41" d="M382.04,119.91l4.51-5.17c4.26,4.42,10.17,7.33,16.33,7.33c7.77,0,12.37-3.87,12.37-9.62
					c0-6.04-4.29-7.97-9.87-10.41l-8.5-3.75c-5.51-2.35-11.98-6.53-11.98-15.24c0-9.04,7.88-15.71,18.63-15.71
					c7.01,0,13.27,3.04,17.42,7.33l-3.99,4.84c-3.62-3.42-7.96-5.55-13.43-5.55c-6.64,0-11.03,3.35-11.03,8.64
					c0,5.7,5.16,7.83,9.8,9.79l8.43,3.65c6.85,2.94,12.19,7.02,12.19,15.82c0,9.35-7.73,16.82-20.17,16.82
					C394.44,128.69,387.21,125.3,382.04,119.91z"/>
				<path class="st41" d="M430.53,105.75c0-14.26,9.61-23.05,19.7-23.05c11.18,0,17.49,8.03,17.49,20.57c0,1.57-0.13,3.13-0.35,4.21
					h-29.51c0.53,9.29,6.21,15.3,14.56,15.3c4.21,0,7.66-1.36,10.91-3.5l2.66,4.87c-3.84,2.51-8.51,4.55-14.47,4.55
					C439.83,128.69,430.53,120.15,430.53,105.75z M461.17,102.17c0-8.78-3.95-13.56-10.8-13.56c-6.16,0-11.67,4.95-12.57,13.56
					H461.17z"/>
				<path class="st41" d="M475.79,116.23c0-9.55,8.24-14.32,26.92-16.35c-0.02-5.64-1.89-11.07-9.05-11.07
					c-5.07,0-9.64,2.4-13.07,4.7l-2.9-5.08c4.03-2.65,10.18-5.72,17.21-5.72c10.7,0,15.22,7.11,15.22,18.02v26.89H504l-0.63-5.24
					h-0.25c-4.18,3.47-9.06,6.32-14.49,6.32C481.3,128.69,475.79,124.14,475.79,116.23z M502.71,116.92v-12.17
					c-14.69,1.77-19.65,5.36-19.65,10.96c0,4.98,3.38,7.01,7.68,7.01C494.97,122.72,498.46,120.66,502.71,116.92z"/>
				<path class="st41" d="M523.95,83.78h6.13l0.63,7.98h0.25c3.05-5.56,7.53-9.06,12.46-9.06c1.94,0,3.3,0.25,4.68,0.9l-1.38,6.51
					c-1.51-0.47-2.5-0.72-4.25-0.72c-3.7,0-8.12,2.67-11.09,10.08v28.14h-7.42V83.78z"/>
				<path class="st41" d="M551.97,105.75c0-14.62,9.88-23.05,21.09-23.05c5.75,0,9.74,2.37,12.82,5.14l-3.79,4.9
					c-2.55-2.31-5.25-3.87-8.7-3.87c-7.94,0-13.76,6.84-13.76,16.88c0,10.04,5.5,16.76,13.56,16.76c4.01,0,7.56-1.95,10.29-4.37
					l3.22,4.97c-3.94,3.51-8.91,5.57-14.17,5.57C560.87,128.69,551.97,120.26,551.97,105.75z"/>
				<path class="st41" d="M596.34,63.37h7.42v17.57l-0.27,9.01c4.09-3.96,8.53-7.25,14.55-7.25c9.23,0,13.38,5.96,13.38,17.14v27.77
					h-7.42V100.8c0-8.16-2.47-11.66-8.27-11.66c-4.48,0-7.59,2.29-11.98,6.73v31.74h-7.42V63.37z"/>
			</g>
		</g>
	</g>
</g>
<g>
	<g>
		<path class="st41" d="M486.46,144.3h-9.53v-3.39H500v3.39h-9.53v28.11h-4.01V144.3z"/>
		<path class="st41" d="M503.53,160.78c0-7.59,5.12-12.27,10.49-12.27c5.95,0,9.31,4.27,9.31,10.95c0,0.83-0.07,1.67-0.18,2.24
			h-15.71c0.28,4.94,3.31,8.15,7.75,8.15c2.24,0,4.08-0.72,5.81-1.87l1.41,2.59c-2.05,1.34-4.53,2.42-7.71,2.42
			C508.48,172.99,503.53,168.44,503.53,160.78z M519.84,158.87c0-4.68-2.1-7.22-5.75-7.22c-3.28,0-6.21,2.63-6.69,7.22H519.84z"/>
		<path class="st41" d="M533.43,160.24l-7.06-11.16h4.28l3.12,5.12c0.72,1.28,1.51,2.6,2.28,3.88h0.19c0.71-1.28,1.4-2.6,2.11-3.88
			l2.85-5.12h4.12l-7.06,11.57l7.63,11.76h-4.28l-3.44-5.42c-0.81-1.4-1.67-2.84-2.54-4.19h-0.19c-0.8,1.34-1.56,2.77-2.36,4.19
			l-3.16,5.42h-4.12L533.43,160.24z"/>
		<path class="st41" d="M551.17,165.2v-12.9h-3.47v-2.99l3.65-0.23l0.47-6.54h3.3v6.54h6.32v3.22h-6.32v12.97
			c0,2.85,0.92,4.51,3.61,4.51c0.83,0,1.9-0.31,2.66-0.63l0.76,2.98c-1.31,0.45-2.87,0.87-4.33,0.87
			C552.85,172.99,551.17,169.84,551.17,165.2z"/>
	</g>
</g>
<g>
	<g class="st42">
		<path class="st43" d="M477.62,168.31l2.4-2.75c2.27,2.35,5.42,3.9,8.69,3.9c4.13,0,6.59-2.06,6.59-5.12
			c0-3.22-2.28-4.24-5.26-5.54l-4.53-2c-2.94-1.25-6.38-3.48-6.38-8.11c0-4.81,4.19-8.36,9.92-8.36c3.73,0,7.06,1.62,9.28,3.9
			l-2.13,2.58c-1.93-1.82-4.24-2.96-7.15-2.96c-3.53,0-5.87,1.78-5.87,4.6c0,3.04,2.75,4.17,5.21,5.21l4.49,1.94
			c3.65,1.57,6.49,3.74,6.49,8.42c0,4.98-4.11,8.95-10.74,8.95C484.22,172.99,480.37,171.19,477.62,168.31z"/>
		<path class="st43" d="M505.86,165.2v-12.9h-3.47v-2.99l3.65-0.23l0.47-6.54h3.3v6.54h6.32v3.22h-6.32v12.97
			c0,2.85,0.92,4.51,3.61,4.51c0.83,0,1.9-0.31,2.66-0.63l0.76,2.98c-1.31,0.45-2.87,0.87-4.33,0.87
			C507.54,172.99,505.86,169.84,505.86,165.2z"/>
		<path class="st43" d="M521.39,149.08h3.26l0.33,4.25h0.13c1.62-2.96,4.01-4.83,6.63-4.83c1.03,0,1.76,0.13,2.49,0.48l-0.74,3.46
			c-0.8-0.25-1.33-0.38-2.26-0.38c-1.97,0-4.33,1.42-5.9,5.37v14.98h-3.95V149.08z"/>
		<path class="st43" d="M537.73,163.87v-14.79h3.95v14.27c0,4.35,1.31,6.21,4.4,6.21c2.39,0,4.04-1.18,6.25-3.93v-16.55h3.95v23.33
			h-3.26l-0.33-3.65h-0.13c-2.16,2.55-4.49,4.23-7.7,4.23C539.94,172.99,537.73,169.82,537.73,163.87z"/>
		<path class="st43" d="M562.42,160.78c0-7.79,5.26-12.27,11.23-12.27c3.06,0,5.18,1.26,6.83,2.74l-2.02,2.61
			c-1.36-1.23-2.79-2.06-4.63-2.06c-4.23,0-7.32,3.64-7.32,8.99c0,5.35,2.93,8.93,7.22,8.93c2.13,0,4.02-1.04,5.48-2.33l1.71,2.65
			c-2.1,1.87-4.74,2.97-7.54,2.97C567.16,172.99,562.42,168.5,562.42,160.78z"/>
		<path class="st43" d="M586.73,165.2v-12.9h-3.47v-2.99l3.65-0.23l0.47-6.54h3.3v6.54h6.32v3.22h-6.32v12.97
			c0,2.85,0.92,4.51,3.61,4.51c0.83,0,1.9-0.31,2.66-0.63l0.76,2.98c-1.31,0.45-2.87,0.87-4.33,0.87
			C588.42,172.99,586.73,169.84,586.73,165.2z"/>
		<path class="st43" d="M601.95,163.87v-14.79h3.95v14.27c0,4.35,1.31,6.21,4.4,6.21c2.39,0,4.04-1.18,6.25-3.93v-16.55h3.95v23.33
			h-3.26l-0.33-3.65h-0.13c-2.16,2.55-4.49,4.23-7.7,4.23C604.16,172.99,601.95,169.82,601.95,163.87z"/>
		<path class="st43" d="M628.38,149.08h3.26l0.33,4.25h0.13c1.62-2.96,4.01-4.83,6.63-4.83c1.03,0,1.76,0.13,2.49,0.48l-0.74,3.46
			c-0.8-0.25-1.33-0.38-2.26-0.38c-1.97,0-4.33,1.42-5.9,5.37v14.98h-3.95V149.08z"/>
		<path class="st43" d="M643.3,160.78c0-7.59,5.12-12.27,10.49-12.27c5.95,0,9.31,4.27,9.31,10.95c0,0.83-0.07,1.67-0.18,2.24H647.2
			c0.28,4.94,3.31,8.15,7.75,8.15c2.24,0,4.08-0.72,5.81-1.87l1.41,2.59c-2.05,1.34-4.53,2.42-7.71,2.42
			C648.25,172.99,643.3,168.44,643.3,160.78z M659.61,158.87c0-4.68-2.1-7.22-5.75-7.22c-3.28,0-6.21,2.63-6.69,7.22H659.61z"/>
	</g>
</g>
<g>
	<g class="st42">
		<path class="st43" d="M477.62,168.31l2.4-2.75c2.27,2.35,5.42,3.9,8.69,3.9c4.13,0,6.59-2.06,6.59-5.12
			c0-3.22-2.28-4.24-5.26-5.54l-4.53-2c-2.94-1.25-6.38-3.48-6.38-8.11c0-4.81,4.19-8.36,9.92-8.36c3.73,0,7.06,1.62,9.28,3.9
			l-2.13,2.58c-1.93-1.82-4.24-2.96-7.15-2.96c-3.53,0-5.87,1.78-5.87,4.6c0,3.04,2.75,4.17,5.21,5.21l4.49,1.94
			c3.65,1.57,6.49,3.74,6.49,8.42c0,4.98-4.11,8.95-10.74,8.95C484.22,172.99,480.37,171.19,477.62,168.31z"/>
		<path class="st43" d="M503.43,160.78c0-7.59,5.12-12.27,10.49-12.27c5.95,0,9.31,4.27,9.31,10.95c0,0.83-0.07,1.67-0.18,2.24
			h-15.71c0.28,4.94,3.31,8.15,7.75,8.15c2.24,0,4.08-0.72,5.81-1.87l1.41,2.59c-2.05,1.34-4.53,2.42-7.71,2.42
			C508.38,172.99,503.43,168.44,503.43,160.78z M519.74,158.87c0-4.68-2.1-7.22-5.75-7.22c-3.28,0-6.21,2.63-6.69,7.22H519.74z"/>
		<path class="st43" d="M543.78,173.97l0.17-4.23c-1.86,1.8-4.32,3.25-7.02,3.25c-5.83,0-9.61-4.44-9.61-12.21
			c0-7.57,4.77-12.27,10.1-12.27c2.7,0,4.6,0.99,6.67,2.79h0.13l0.37-2.22h3.16v33.18h-3.95V173.97z M543.78,166.48v-12.23
			c-1.99-1.77-3.79-2.43-5.69-2.43c-3.73,0-6.7,3.6-6.7,8.92c0,5.59,2.31,8.93,6.4,8.93C539.95,169.67,541.82,168.62,543.78,166.48z
			"/>
		<path class="st43" d="M555.3,163.87v-14.79h3.95v14.27c0,4.35,1.31,6.21,4.4,6.21c2.39,0,4.04-1.18,6.25-3.93v-16.55h3.95v23.33
			h-3.26l-0.33-3.65h-0.13c-2.16,2.55-4.49,4.23-7.7,4.23C557.51,172.99,555.3,169.82,555.3,163.87z"/>
		<path class="st43" d="M579.99,160.78c0-7.59,5.12-12.27,10.49-12.27c5.95,0,9.31,4.27,9.31,10.95c0,0.83-0.07,1.67-0.18,2.24
			h-15.71c0.28,4.94,3.31,8.15,7.75,8.15c2.24,0,4.08-0.72,5.81-1.87l1.41,2.59c-2.05,1.34-4.53,2.42-7.71,2.42
			C584.94,172.99,579.99,168.44,579.99,160.78z M596.3,158.87c0-4.68-2.1-7.22-5.75-7.22c-3.28,0-6.21,2.63-6.69,7.22H596.3z"/>
		<path class="st43" d="M605.53,149.08h3.26l0.33,3.37h0.13c2.22-2.19,4.62-3.94,7.83-3.94c4.92,0,7.12,3.17,7.12,9.13v14.79h-3.95
			v-14.28c0-4.35-1.31-6.21-4.4-6.21c-2.39,0-4.04,1.22-6.38,3.58v16.9h-3.95V149.08z"/>
		<path class="st43" d="M630.05,160.78c0-7.79,5.26-12.27,11.23-12.27c3.06,0,5.18,1.26,6.83,2.74l-2.02,2.61
			c-1.36-1.23-2.79-2.06-4.63-2.06c-4.23,0-7.32,3.64-7.32,8.99c0,5.35,2.93,8.93,7.22,8.93c2.13,0,4.02-1.04,5.48-2.33l1.71,2.65
			c-2.1,1.87-4.74,2.97-7.54,2.97C634.79,172.99,630.05,168.5,630.05,160.78z"/>
		<path class="st43" d="M651.94,160.78c0-7.59,5.12-12.27,10.49-12.27c5.95,0,9.31,4.27,9.31,10.95c0,0.83-0.07,1.67-0.18,2.24
			h-15.71c0.28,4.94,3.31,8.15,7.75,8.15c2.24,0,4.08-0.72,5.81-1.87l1.41,2.59c-2.05,1.34-4.53,2.42-7.71,2.42
			C656.89,172.99,651.94,168.44,651.94,160.78z M668.25,158.87c0-4.68-2.1-7.22-5.75-7.22c-3.28,0-6.21,2.63-6.69,7.22H668.25z"/>
	</g>
</g>
</svg>
