<svg id="图层_1" data-name="图层 1" xmlns="http://www.w3.org/2000/svg" xmlns:xlink="http://www.w3.org/1999/xlink" viewBox="0 0 590.04 165.98"><defs><style>.cls-1{fill:#00b368;}.cls-2{opacity:0.7;}.cls-3{fill:#fff;}.cls-4{fill:url(#未命名的渐变_21);}.cls-5{fill:url(#未命名的渐变_21-2);}.cls-6{fill:url(#未命名的渐变_21-3);}.cls-7{fill:url(#未命名的渐变_21-4);}.cls-8{fill:url(#未命名的渐变_21-5);}.cls-9{fill:url(#未命名的渐变_21-6);}.cls-10{fill:url(#未命名的渐变_21-7);}.cls-11{fill:url(#未命名的渐变_21-8);}.cls-12{fill:url(#未命名的渐变_21-9);}.cls-13{fill:url(#未命名的渐变_21-10);}.cls-14{fill:url(#未命名的渐变_21-11);}.cls-15{fill:url(#未命名的渐变_21-12);}.cls-16{fill:url(#未命名的渐变_21-13);}.cls-17{fill:url(#未命名的渐变_21-14);}.cls-18{fill:url(#未命名的渐变_21-15);}.cls-19{fill:url(#未命名的渐变_21-16);}.cls-20{fill:url(#未命名的渐变_21-17);}.cls-21{fill:url(#未命名的渐变_21-18);}.cls-22{fill:url(#未命名的渐变_21-19);}.cls-23{fill:url(#未命名的渐变_21-20);}.cls-24{fill:url(#未命名的渐变_21-21);}.cls-25{fill:url(#未命名的渐变_21-22);}.cls-26{fill:url(#未命名的渐变_21-23);}.cls-27{fill:url(#未命名的渐变_21-24);}.cls-28{fill:url(#未命名的渐变_21-25);}.cls-29{fill:url(#未命名的渐变_21-26);}.cls-30{fill:url(#未命名的渐变_21-27);}.cls-31{fill:url(#未命名的渐变_21-28);}.cls-32{fill:url(#未命名的渐变_21-29);}.cls-33{fill:url(#未命名的渐变_21-30);}.cls-34{fill:url(#未命名的渐变_21-31);}.cls-35{fill:url(#未命名的渐变_21-32);}.cls-36{fill:url(#未命名的渐变_21-33);}.cls-37{fill:url(#未命名的渐变_21-34);}.cls-38{fill:url(#未命名的渐变_21-35);}.cls-39{fill:url(#未命名的渐变_21-36);}.cls-40{fill:url(#未命名的渐变_21-37);}.cls-41{fill:url(#未命名的渐变_21-38);}.cls-42{fill:url(#未命名的渐变_21-39);}.cls-43{fill:url(#未命名的渐变_21-40);}.cls-44{fill:url(#未命名的渐变_21-41);}.cls-45{fill:url(#未命名的渐变_21-42);}.cls-46{fill:url(#未命名的渐变_21-43);}.cls-47{fill:url(#未命名的渐变_21-44);}.cls-48{fill:url(#未命名的渐变_21-45);}.cls-49{fill:url(#未命名的渐变_21-46);}.cls-50{fill:url(#未命名的渐变_21-47);}.cls-51{fill:url(#未命名的渐变_21-48);}.cls-52{fill:url(#未命名的渐变_21-49);}.cls-53{fill:url(#未命名的渐变_21-50);}.cls-54{fill:url(#未命名的渐变_21-51);}.cls-55{fill:url(#未命名的渐变_21-52);}.cls-56{fill:url(#未命名的渐变_21-53);}.cls-57{fill:url(#未命名的渐变_21-54);}.cls-58{fill:url(#未命名的渐变_21-55);}.cls-59{fill:url(#未命名的渐变_21-56);}.cls-60{fill:url(#未命名的渐变_21-57);}.cls-61{fill:url(#未命名的渐变_21-58);}.cls-62{fill:url(#未命名的渐变_21-59);}.cls-63{fill:url(#未命名的渐变_21-60);}.cls-64{fill:url(#未命名的渐变_21-61);}.cls-65{fill:url(#未命名的渐变_21-62);}.cls-66{fill:url(#未命名的渐变_21-63);}.cls-67{fill:url(#未命名的渐变_21-64);}.cls-68{fill:url(#未命名的渐变_21-65);}.cls-69{fill:url(#未命名的渐变_21-66);}.cls-70{fill:url(#未命名的渐变_21-67);}.cls-71{fill:url(#未命名的渐变_21-68);}.cls-72{fill:url(#未命名的渐变_21-69);}.cls-73{fill:url(#未命名的渐变_21-70);}.cls-74{fill:url(#未命名的渐变_21-71);}.cls-75{fill:url(#未命名的渐变_21-72);}.cls-76{fill:url(#未命名的渐变_21-73);}.cls-77{fill:url(#未命名的渐变_21-74);}.cls-78{fill:url(#未命名的渐变_21-75);}.cls-79{fill:url(#未命名的渐变_21-76);}.cls-80{fill:url(#未命名的渐变_21-77);}.cls-81{fill:url(#未命名的渐变_21-78);}.cls-82{fill:url(#未命名的渐变_21-79);}.cls-83{fill:url(#未命名的渐变_21-80);}.cls-84{fill:url(#未命名的渐变_21-81);}.cls-85{fill:url(#未命名的渐变_21-82);}.cls-86{fill:url(#未命名的渐变_21-83);}.cls-87{fill:url(#未命名的渐变_21-84);}.cls-88{fill:url(#未命名的渐变_21-85);}.cls-89{fill:url(#未命名的渐变_21-86);}.cls-90{fill:url(#未命名的渐变_21-87);}.cls-91{fill:url(#未命名的渐变_21-88);}.cls-92{fill:url(#未命名的渐变_21-89);}.cls-93{fill:url(#未命名的渐变_21-90);}.cls-94{fill:url(#未命名的渐变_21-91);}.cls-95{fill:url(#未命名的渐变_21-92);}.cls-96{fill:url(#未命名的渐变_21-93);}.cls-97{fill:url(#未命名的渐变_21-94);}.cls-98{fill:url(#未命名的渐变_21-95);}.cls-99{fill:url(#未命名的渐变_21-96);}.cls-100{fill:url(#未命名的渐变_21-97);}.cls-101{fill:url(#未命名的渐变_21-98);}.cls-102{fill:url(#未命名的渐变_21-99);}.cls-103{fill:url(#未命名的渐变_21-100);}.cls-104{fill:url(#未命名的渐变_21-101);}.cls-105{fill:url(#未命名的渐变_21-102);}.cls-106{fill:url(#未命名的渐变_21-103);}.cls-107{fill:url(#未命名的渐变_21-104);}.cls-108{fill:url(#未命名的渐变_21-105);}.cls-109{fill:url(#未命名的渐变_21-106);}.cls-110{fill:url(#未命名的渐变_21-107);}.cls-111{fill:url(#未命名的渐变_21-108);}.cls-112{fill:url(#未命名的渐变_21-109);}.cls-113{fill:url(#未命名的渐变_21-110);}.cls-114{fill:url(#未命名的渐变_21-111);}.cls-115{fill:url(#未命名的渐变_21-112);}.cls-116{fill:url(#未命名的渐变_21-113);}.cls-117{fill:url(#未命名的渐变_21-114);}.cls-118{fill:url(#未命名的渐变_21-115);}.cls-119{fill:url(#未命名的渐变_21-116);}.cls-120{fill:url(#未命名的渐变_21-117);}.cls-121{fill:url(#未命名的渐变_21-118);}.cls-122{fill:url(#未命名的渐变_21-119);}.cls-123{fill:url(#未命名的渐变_21-120);}.cls-124{fill:url(#未命名的渐变_21-121);}.cls-125{fill:url(#未命名的渐变_21-122);}.cls-126{fill:url(#未命名的渐变_21-123);}.cls-127{fill:url(#未命名的渐变_21-124);}.cls-128{fill:url(#未命名的渐变_21-125);}.cls-129{fill:url(#未命名的渐变_21-126);}.cls-130{fill:url(#未命名的渐变_21-127);}.cls-131{fill:url(#未命名的渐变_21-128);}.cls-132{fill:url(#未命名的渐变_21-129);}.cls-133{fill:url(#未命名的渐变_21-130);}.cls-134{fill:url(#未命名的渐变_21-131);}.cls-135{fill:url(#未命名的渐变_21-132);}.cls-136{fill:url(#未命名的渐变_21-133);}.cls-137{fill:url(#未命名的渐变_21-134);}.cls-138{fill:url(#未命名的渐变_21-135);}.cls-139{fill:url(#未命名的渐变_21-136);}.cls-140{fill:url(#未命名的渐变_21-137);}.cls-141{fill:url(#未命名的渐变_21-138);}.cls-142{fill:url(#未命名的渐变_21-139);}.cls-143{fill:url(#未命名的渐变_21-140);}.cls-144{fill:url(#未命名的渐变_21-141);}.cls-145{fill:url(#未命名的渐变_21-142);}.cls-146{fill:url(#未命名的渐变_21-143);}.cls-147{fill:url(#未命名的渐变_21-144);}.cls-148{fill:url(#未命名的渐变_21-145);}.cls-149{fill:url(#未命名的渐变_21-146);}.cls-150{fill:url(#未命名的渐变_21-147);}.cls-151{fill:url(#未命名的渐变_21-148);}.cls-152{fill:url(#未命名的渐变_21-149);}.cls-153{fill:url(#未命名的渐变_21-150);}.cls-154{fill:url(#未命名的渐变_21-151);}.cls-155{fill:url(#未命名的渐变_21-152);}.cls-156{fill:url(#未命名的渐变_21-153);}.cls-157{fill:url(#未命名的渐变_21-154);}.cls-158{fill:url(#未命名的渐变_21-155);}.cls-159{fill:url(#未命名的渐变_21-156);}.cls-160{fill:url(#未命名的渐变_21-157);}.cls-161{fill:url(#未命名的渐变_21-158);}.cls-162{fill:url(#未命名的渐变_21-159);}.cls-163{fill:url(#未命名的渐变_21-160);}.cls-164{fill:url(#未命名的渐变_21-161);}.cls-165{fill:url(#未命名的渐变_21-162);}.cls-166{fill:url(#未命名的渐变_21-163);}.cls-167{fill:url(#未命名的渐变_21-164);}.cls-168{fill:url(#未命名的渐变_21-165);}.cls-169{fill:url(#未命名的渐变_21-166);}.cls-170{fill:url(#未命名的渐变_21-167);}.cls-171{fill:url(#未命名的渐变_21-168);}.cls-172{fill:url(#未命名的渐变_21-169);}.cls-173{fill:url(#未命名的渐变_21-170);}.cls-174{fill:url(#未命名的渐变_21-171);}.cls-175{fill:url(#未命名的渐变_21-172);}.cls-176{fill:url(#未命名的渐变_21-173);}.cls-177{fill:url(#未命名的渐变_21-174);}.cls-178{fill:url(#未命名的渐变_21-175);}.cls-179{fill:url(#未命名的渐变_21-176);}.cls-180{fill:url(#未命名的渐变_21-177);}.cls-181{fill:url(#未命名的渐变_21-178);}.cls-182{fill:url(#未命名的渐变_21-179);}.cls-183{fill:url(#未命名的渐变_21-180);}.cls-184{fill:url(#未命名的渐变_21-181);}.cls-185{fill:url(#未命名的渐变_21-182);}.cls-186{fill:url(#未命名的渐变_21-183);}.cls-187{fill:url(#未命名的渐变_21-184);}.cls-188{fill:url(#未命名的渐变_21-185);}.cls-189{fill:url(#未命名的渐变_21-186);}.cls-190{fill:url(#未命名的渐变_21-187);}.cls-191{fill:url(#未命名的渐变_21-188);}.cls-192{fill:url(#未命名的渐变_21-189);}.cls-193{fill:url(#未命名的渐变_21-190);}.cls-194{fill:url(#未命名的渐变_21-191);}.cls-195{fill:url(#未命名的渐变_21-192);}.cls-196{fill:url(#未命名的渐变_21-193);}.cls-197{fill:url(#未命名的渐变_21-194);}.cls-198{fill:url(#未命名的渐变_21-195);}.cls-199{fill:url(#未命名的渐变_21-196);}.cls-200{fill:url(#未命名的渐变_21-197);}.cls-201{fill:url(#未命名的渐变_21-198);}.cls-202{fill:url(#未命名的渐变_21-199);}.cls-203{fill:url(#未命名的渐变_21-200);}.cls-204{fill:url(#未命名的渐变_21-201);}.cls-205{fill:url(#未命名的渐变_21-202);}.cls-206{fill:url(#未命名的渐变_21-203);}.cls-207{fill:url(#未命名的渐变_21-204);}.cls-208{fill:url(#未命名的渐变_21-205);}.cls-209{fill:url(#未命名的渐变_21-206);}.cls-210{fill:url(#未命名的渐变_21-207);}.cls-211{fill:url(#未命名的渐变_21-208);}.cls-212{fill:url(#未命名的渐变_21-209);}.cls-213{fill:url(#未命名的渐变_21-210);}.cls-214{fill:url(#未命名的渐变_21-211);}.cls-215{fill:url(#未命名的渐变_21-212);}.cls-216{fill:url(#未命名的渐变_21-213);}.cls-217{fill:url(#未命名的渐变_21-214);}.cls-218{fill:url(#未命名的渐变_21-215);}.cls-219{fill:url(#未命名的渐变_21-216);}.cls-220{fill:url(#未命名的渐变_21-217);}.cls-221{fill:url(#未命名的渐变_21-218);}.cls-222{fill:url(#未命名的渐变_21-219);}.cls-223{fill:url(#未命名的渐变_21-220);}.cls-224{fill:url(#未命名的渐变_21-221);}.cls-225{fill:url(#未命名的渐变_21-222);}.cls-226{fill:url(#未命名的渐变_21-223);}.cls-227{fill:url(#未命名的渐变_21-224);}.cls-228{fill:url(#未命名的渐变_21-225);}.cls-229{fill:url(#未命名的渐变_21-226);}.cls-230{fill:url(#未命名的渐变_21-227);}.cls-231{fill:url(#未命名的渐变_21-228);}.cls-232{fill:url(#未命名的渐变_21-229);}.cls-233{fill:url(#未命名的渐变_21-230);}.cls-234{fill:url(#未命名的渐变_21-231);}.cls-235{fill:url(#未命名的渐变_21-232);}.cls-236{fill:url(#未命名的渐变_21-233);}.cls-237{fill:url(#未命名的渐变_21-234);}.cls-238{fill:url(#未命名的渐变_21-235);}.cls-239{fill:url(#未命名的渐变_21-236);}.cls-240{fill:url(#未命名的渐变_21-237);}.cls-241{fill:url(#未命名的渐变_21-238);}.cls-242{fill:url(#未命名的渐变_21-239);}.cls-243{fill:url(#未命名的渐变_21-240);}.cls-244{fill:url(#未命名的渐变_21-241);}.cls-245{fill:url(#未命名的渐变_21-242);}.cls-246{fill:url(#未命名的渐变_21-243);}.cls-247{fill:url(#未命名的渐变_21-244);}.cls-248{fill:url(#未命名的渐变_21-245);}.cls-249{fill:url(#未命名的渐变_21-246);}.cls-250{fill:url(#未命名的渐变_21-247);}.cls-251{fill:url(#未命名的渐变_21-248);}.cls-252{fill:url(#未命名的渐变_21-249);}.cls-253{fill:url(#未命名的渐变_21-250);}.cls-254{fill:url(#未命名的渐变_21-251);}.cls-255{fill:url(#未命名的渐变_21-252);}.cls-256{fill:url(#未命名的渐变_21-253);}.cls-257{fill:url(#未命名的渐变_21-254);}.cls-258{fill:url(#未命名的渐变_21-255);}.cls-259{fill:url(#未命名的渐变_21-256);}.cls-260{fill:url(#未命名的渐变_21-257);}.cls-261{fill:url(#未命名的渐变_9);}</style><linearGradient id="未命名的渐变_21" x1="23.18" y1="9.76" x2="126.62" y2="184.69" gradientUnits="userSpaceOnUse"><stop offset="0" stop-color="#fdfefe"/><stop offset="0.55" stop-color="#76b59b"/><stop offset="1" stop-color="#097b4c"/></linearGradient><linearGradient id="未命名的渐变_21-2" x1="40.76" y1="-0.64" x2="144.2" y2="174.29" xlink:href="#未命名的渐变_21"/><linearGradient id="未命名的渐变_21-3" x1="58.53" y1="-11.14" x2="161.97" y2="163.79" xlink:href="#未命名的渐变_21"/><linearGradient id="未命名的渐变_21-4" x1="53.85" y1="-8.37" x2="157.28" y2="166.56" xlink:href="#未命名的渐变_21"/><linearGradient id="未命名的渐变_21-5" x1="51.47" y1="-6.97" x2="154.91" y2="167.96" xlink:href="#未命名的渐变_21"/><linearGradient id="未命名的渐变_21-6" x1="62.37" y1="-13.41" x2="165.81" y2="161.52" xlink:href="#未命名的渐变_21"/><linearGradient id="未命名的渐变_21-7" x1="81.11" y1="-24.5" x2="184.55" y2="150.43" xlink:href="#未命名的渐变_21"/><linearGradient id="未命名的渐变_21-8" x1="66.07" y1="-15.6" x2="169.51" y2="159.33" xlink:href="#未命名的渐变_21"/><linearGradient id="未命名的渐变_21-9" x1="97.83" y1="-34.38" x2="201.26" y2="140.55" xlink:href="#未命名的渐变_21"/><linearGradient id="未命名的渐变_21-10" x1="69.25" y1="-17.48" x2="172.68" y2="157.45" xlink:href="#未命名的渐变_21"/><linearGradient id="未命名的渐变_21-11" x1="101.67" y1="-36.65" x2="205.11" y2="138.28" xlink:href="#未命名的渐变_21"/><linearGradient id="未命名的渐变_21-12" x1="108.26" y1="-40.55" x2="211.7" y2="134.38" xlink:href="#未命名的渐变_21"/><linearGradient id="未命名的渐变_21-13" x1="66.01" y1="-15.57" x2="169.45" y2="159.36" xlink:href="#未命名的渐变_21"/><linearGradient id="未命名的渐变_21-14" x1="70.71" y1="-24.12" x2="174.15" y2="150.81" xlink:href="#未命名的渐变_21"/><linearGradient id="未命名的渐变_21-15" x1="74.55" y1="-26.39" x2="177.99" y2="148.54" xlink:href="#未命名的渐变_21"/><linearGradient id="未命名的渐变_21-16" x1="69.87" y1="-17.85" x2="173.31" y2="157.08" xlink:href="#未命名的渐变_21"/><linearGradient id="未命名的渐变_21-17" x1="61.06" y1="-12.64" x2="164.5" y2="162.29" xlink:href="#未命名的渐变_21"/><linearGradient id="未命名的渐变_21-18" x1="72.28" y1="-19.27" x2="175.72" y2="155.66" xlink:href="#未命名的渐变_21"/><linearGradient id="未命名的渐变_21-19" x1="74.77" y1="-20.75" x2="178.21" y2="154.18" xlink:href="#未命名的渐变_21"/><linearGradient id="未命名的渐变_21-20" x1="49.24" y1="-5.65" x2="152.68" y2="169.28" xlink:href="#未命名的渐变_21"/><linearGradient id="未命名的渐变_21-21" x1="53.09" y1="-7.92" x2="156.52" y2="167.01" xlink:href="#未命名的渐变_21"/><linearGradient id="未命名的渐变_21-22" x1="46.21" y1="-3.86" x2="149.65" y2="171.07" xlink:href="#未命名的渐变_21"/><linearGradient id="未命名的渐变_21-23" x1="39.37" y1="-5.59" x2="142.81" y2="169.34" xlink:href="#未命名的渐变_21"/><linearGradient id="未命名的渐变_21-24" x1="38.53" y1="0.68" x2="141.97" y2="175.61" xlink:href="#未命名的渐变_21"/><linearGradient id="未命名的渐变_21-25" x1="56.93" y1="-10.19" x2="160.36" y2="164.74" xlink:href="#未命名的渐变_21"/><linearGradient id="未命名的渐变_21-26" x1="65.44" y1="-21" x2="168.88" y2="153.93" xlink:href="#未命名的渐变_21"/><linearGradient id="未命名的渐变_21-27" x1="78.78" y1="-23.11" x2="182.21" y2="151.82" xlink:href="#未命名的渐变_21"/><linearGradient id="未命名的渐变_21-28" x1="50.23" y1="-6.24" x2="153.67" y2="168.69" xlink:href="#未命名的渐变_21"/><linearGradient id="未命名的渐变_21-29" x1="64.6" y1="-14.73" x2="168.04" y2="160.2" xlink:href="#未命名的渐变_21"/><linearGradient id="未命名的渐变_21-30" x1="7.37" y1="19.11" x2="110.81" y2="194.04" xlink:href="#未命名的渐变_21"/><linearGradient id="未命名的渐变_21-31" x1="-0.3" y1="23.65" x2="103.13" y2="198.58" xlink:href="#未命名的渐变_21"/><linearGradient id="未命名的渐变_21-32" x1="1.93" y1="22.33" x2="105.36" y2="197.26" xlink:href="#未命名的渐变_21"/><linearGradient id="未命名的渐变_21-33" x1="-1.11" y1="24.12" x2="102.33" y2="199.05" xlink:href="#未命名的渐变_21"/><linearGradient id="未命名的渐变_21-34" x1="-4.45" y1="26.1" x2="98.99" y2="201.03" xlink:href="#未命名的渐变_21"/><linearGradient id="未命名的渐变_21-35" x1="2.77" y1="16.06" x2="106.2" y2="190.99" xlink:href="#未命名的渐变_21"/><linearGradient id="未命名的渐变_21-36" x1="-7.14" y1="21.92" x2="96.29" y2="196.85" xlink:href="#未命名的渐变_21"/><linearGradient id="未命名的渐变_21-37" x1="6.61" y1="13.79" x2="110.04" y2="188.72" xlink:href="#未命名的渐变_21"/><linearGradient id="未命名的渐变_21-38" x1="-6.79" y1="27.48" x2="96.65" y2="202.41" xlink:href="#未命名的渐变_21"/><linearGradient id="未命名的渐变_21-39" x1="14.06" y1="15.16" x2="117.49" y2="190.09" xlink:href="#未命名的渐变_21"/><linearGradient id="未命名的渐变_21-40" x1="21.93" y1="10.5" x2="125.36" y2="185.43" xlink:href="#未命名的渐变_21"/><linearGradient id="未命名的渐变_21-41" x1="3.53" y1="21.38" x2="106.96" y2="196.31" xlink:href="#未命名的渐变_21"/><linearGradient id="未命名的渐变_21-42" x1="13.04" y1="15.76" x2="116.47" y2="190.69" xlink:href="#未命名的渐变_21"/><linearGradient id="未命名的渐变_21-43" x1="18.09" y1="12.77" x2="121.52" y2="187.7" xlink:href="#未命名的渐变_21"/><linearGradient id="未命名的渐变_21-44" x1="5.53" y1="20.2" x2="108.97" y2="195.13" xlink:href="#未命名的渐变_21"/><linearGradient id="未命名的渐变_21-45" x1="2.73" y1="21.85" x2="106.17" y2="196.78" xlink:href="#未命名的渐变_21"/><linearGradient id="未命名的渐变_21-46" x1="-9.59" y1="29.14" x2="93.85" y2="204.07" xlink:href="#未命名的渐变_21"/><linearGradient id="未命名的渐变_21-47" x1="67.01" y1="-16.16" x2="170.45" y2="158.77" xlink:href="#未命名的渐变_21"/><linearGradient id="未命名的渐变_21-48" x1="74.76" y1="-20.74" x2="178.2" y2="154.19" xlink:href="#未命名的渐变_21"/><linearGradient id="未命名的渐变_21-49" x1="60.46" y1="-12.28" x2="163.9" y2="162.65" xlink:href="#未命名的渐变_21"/><linearGradient id="未命名的渐变_21-50" x1="94.51" y1="-32.42" x2="197.95" y2="142.51" xlink:href="#未命名的渐变_21"/><linearGradient id="未命名的渐变_21-51" x1="53.27" y1="-8.03" x2="156.7" y2="166.9" xlink:href="#未命名的渐变_21"/><linearGradient id="未命名的渐变_21-52" x1="87.69" y1="-28.39" x2="191.13" y2="146.54" xlink:href="#未命名的渐变_21"/><linearGradient id="未命名的渐变_21-53" x1="81.29" y1="-24.6" x2="184.73" y2="150.33" xlink:href="#未命名的渐变_21"/><linearGradient id="未命名的渐变_21-54" x1="-25.17" y1="38.35" x2="78.27" y2="213.28" xlink:href="#未命名的渐变_21"/><linearGradient id="未命名的渐变_21-55" x1="101.39" y1="-36.48" x2="204.82" y2="138.45" xlink:href="#未命名的渐变_21"/><linearGradient id="未命名的渐变_21-56" x1="-16.43" y1="27.41" x2="87.01" y2="202.34" xlink:href="#未命名的渐变_21"/><linearGradient id="未命名的渐变_21-57" x1="32.64" y1="4.17" x2="136.08" y2="179.1" xlink:href="#未命名的渐变_21"/><linearGradient id="未命名的渐变_21-58" x1="-5.75" y1="26.87" x2="97.69" y2="201.8" xlink:href="#未命名的渐变_21"/><linearGradient id="未命名的渐变_21-59" x1="24.96" y1="8.71" x2="128.4" y2="183.64" xlink:href="#未命名的渐变_21"/><linearGradient id="未命名的渐变_21-60" x1="-1.91" y1="24.6" x2="101.52" y2="199.53" xlink:href="#未命名的渐变_21"/><linearGradient id="未命名的渐变_21-61" x1="28.8" y1="6.44" x2="132.24" y2="181.37" xlink:href="#未命名的渐变_21"/><linearGradient id="未命名的渐变_21-62" x1="-7.98" y1="28.19" x2="95.45" y2="203.12" xlink:href="#未命名的渐变_21"/><linearGradient id="未命名的渐变_21-63" x1="44.78" y1="-3.01" x2="148.22" y2="171.92" xlink:href="#未命名的渐变_21"/><linearGradient id="未命名的渐变_21-64" x1="41.75" y1="-1.22" x2="145.18" y2="173.71" xlink:href="#未命名的渐变_21"/><linearGradient id="未命名的渐变_21-65" x1="3.36" y1="21.48" x2="106.79" y2="196.41" xlink:href="#未命名的渐变_21"/><linearGradient id="未命名的渐变_21-66" x1="-0.48" y1="23.75" x2="102.95" y2="198.68" xlink:href="#未命名的渐变_21"/><linearGradient id="未命名的渐变_21-67" x1="40.94" y1="-0.74" x2="144.38" y2="174.19" xlink:href="#未命名的渐变_21"/><linearGradient id="未命名的渐变_21-68" x1="34.1" y1="-2.47" x2="137.54" y2="172.46" xlink:href="#未命名的渐变_21"/><linearGradient id="未命名的渐变_21-69" x1="30.27" y1="-0.2" x2="133.7" y2="174.73" xlink:href="#未命名的渐变_21"/><linearGradient id="未命名的渐变_21-70" x1="34.07" y1="3.32" x2="137.51" y2="178.25" xlink:href="#未命名的渐变_21"/><linearGradient id="未命名的渐变_21-71" x1="22.55" y1="10.13" x2="125.99" y2="185.06" xlink:href="#未命名的渐变_21"/><linearGradient id="未命名的渐变_21-72" x1="23.39" y1="3.86" x2="126.83" y2="178.79" xlink:href="#未命名的渐变_21"/><linearGradient id="未命名的渐变_21-73" x1="27.23" y1="1.59" x2="130.67" y2="176.52" xlink:href="#未命名的渐变_21"/><linearGradient id="未命名的渐变_21-74" x1="11.03" y1="16.94" x2="114.47" y2="191.87" xlink:href="#未命名的渐变_21"/><linearGradient id="未命名的渐变_21-75" x1="7.19" y1="19.21" x2="110.63" y2="194.14" xlink:href="#未命名的渐变_21"/><linearGradient id="未命名的渐变_21-76" x1="25.59" y1="8.34" x2="129.02" y2="183.27" xlink:href="#未命名的渐变_21"/><linearGradient id="未命名的渐变_21-77" x1="14.87" y1="14.67" x2="118.31" y2="189.6" xlink:href="#未命名的渐变_21"/><linearGradient id="未命名的渐变_21-78" x1="15.71" y1="8.4" x2="119.15" y2="183.33" xlink:href="#未命名的渐变_21"/><linearGradient id="未命名的渐变_21-79" x1="118.17" y1="-46.41" x2="221.61" y2="128.52" xlink:href="#未命名的渐变_21"/><linearGradient id="未命名的渐变_21-80" x1="104.73" y1="-38.46" x2="208.16" y2="136.47" xlink:href="#未命名的渐变_21"/><linearGradient id="未命名的渐变_21-81" x1="108.3" y1="-46.34" x2="211.74" y2="128.59" xlink:href="#未命名的渐变_21"/><linearGradient id="未命名的渐变_21-82" x1="107.46" y1="-40.07" x2="210.9" y2="134.86" xlink:href="#未命名的渐变_21"/><linearGradient id="未命名的渐变_21-83" x1="110.49" y1="-41.87" x2="213.93" y2="133.06" xlink:href="#未命名的渐变_21"/><linearGradient id="未命名的渐变_21-84" x1="128.89" y1="-52.74" x2="232.32" y2="122.19" xlink:href="#未命名的渐变_21"/><linearGradient id="未命名的渐变_21-85" x1="18.75" y1="6.61" x2="122.18" y2="181.54" xlink:href="#未命名的渐变_21"/><linearGradient id="未命名的渐变_21-86" x1="122.01" y1="-48.68" x2="225.45" y2="126.25" xlink:href="#未命名的渐变_21"/><linearGradient id="未命名的渐变_21-87" x1="114.33" y1="-44.14" x2="217.77" y2="130.79" xlink:href="#未命名的渐变_21"/><linearGradient id="未命名的渐变_21-88" x1="106.93" y1="-39.76" x2="210.36" y2="135.17" xlink:href="#未命名的渐变_21"/><linearGradient id="未命名的渐变_21-89" x1="11.07" y1="11.15" x2="114.51" y2="186.08" xlink:href="#未命名的渐变_21"/><linearGradient id="未命名的渐变_21-90" x1="17.91" y1="12.88" x2="121.35" y2="187.81" xlink:href="#未命名的渐变_21"/><linearGradient id="未命名的渐变_21-91" x1="6.39" y1="19.69" x2="109.83" y2="194.62" xlink:href="#未命名的渐变_21"/><linearGradient id="未命名的渐变_21-92" x1="115.14" y1="-44.61" x2="218.57" y2="130.32" xlink:href="#未命名的渐变_21"/><linearGradient id="未命名的渐变_21-93" x1="48.62" y1="-5.28" x2="152.06" y2="169.65" xlink:href="#未命名的渐变_21"/><linearGradient id="未命名的渐变_21-94" x1="10.23" y1="17.42" x2="113.67" y2="192.35" xlink:href="#未命名的渐变_21"/><linearGradient id="未命名的渐变_21-95" x1="29.43" y1="6.07" x2="132.86" y2="181" xlink:href="#未命名的渐变_21"/><linearGradient id="未命名的渐变_21-96" x1="65.41" y1="-15.21" x2="168.84" y2="159.72" xlink:href="#未命名的渐变_21"/><linearGradient id="未命名的渐变_21-97" x1="58.57" y1="-16.94" x2="162" y2="157.99" xlink:href="#未命名的渐变_21"/><linearGradient id="未命名的渐变_21-98" x1="24.02" y1="3.49" x2="127.45" y2="178.42" xlink:href="#未命名的渐变_21"/><linearGradient id="未命名的渐变_21-99" x1="37.73" y1="1.16" x2="141.17" y2="176.09" xlink:href="#未命名的渐变_21"/><linearGradient id="未命名的渐变_21-100" x1="33.89" y1="3.43" x2="137.33" y2="178.36" xlink:href="#未命名的渐变_21"/><linearGradient id="未命名的渐变_21-101" x1="30.86" y1="5.22" x2="134.29" y2="180.15" xlink:href="#未命名的渐变_21"/><linearGradient id="未命名的渐变_21-102" x1="37.91" y1="1.05" x2="141.35" y2="175.98" xlink:href="#未命名的渐变_21"/><linearGradient id="未命名的渐变_21-103" x1="75.32" y1="-21.07" x2="178.75" y2="153.86" xlink:href="#未命名的渐变_21"/><linearGradient id="未命名的渐变_21-104" x1="41.57" y1="-1.11" x2="145.01" y2="173.82" xlink:href="#未命名的渐变_21"/><linearGradient id="未命名的渐变_21-105" x1="63.8" y1="-14.26" x2="167.24" y2="160.67" xlink:href="#未命名的渐变_21"/><linearGradient id="未命名的渐变_21-106" x1="67.64" y1="-16.53" x2="171.08" y2="158.4" xlink:href="#未命名的渐变_21"/><linearGradient id="未命名的渐变_21-107" x1="57.73" y1="-10.67" x2="161.17" y2="164.26" xlink:href="#未命名的渐变_21"/><linearGradient id="未命名的渐变_21-108" x1="68.48" y1="-22.8" x2="171.91" y2="152.13" xlink:href="#未命名的渐变_21"/><linearGradient id="未命名的渐变_21-109" x1="59.96" y1="-11.99" x2="163.4" y2="162.94" xlink:href="#未命名的渐变_21"/><linearGradient id="未命名的渐变_21-110" x1="63" y1="-13.78" x2="166.43" y2="161.15" xlink:href="#未命名的渐变_21"/><linearGradient id="未命名的渐变_21-111" x1="55.32" y1="-9.24" x2="158.75" y2="165.69" xlink:href="#未命名的渐变_21"/><linearGradient id="未命名的渐变_21-112" x1="101.42" y1="-42.28" x2="204.86" y2="132.65" xlink:href="#未命名的渐变_21"/><linearGradient id="未命名的渐变_21-113" x1="59.16" y1="-11.51" x2="162.59" y2="163.42" xlink:href="#未命名的渐变_21"/><linearGradient id="未命名的渐变_21-114" x1="-4.32" y1="26.02" x2="99.12" y2="200.95" xlink:href="#未命名的渐变_21"/><linearGradient id="未命名的渐变_21-115" x1="2.57" y1="21.95" x2="106" y2="196.88" xlink:href="#未命名的渐变_21"/><linearGradient id="未命名的渐变_21-116" x1="63.28" y1="-13.95" x2="166.72" y2="160.98" xlink:href="#未命名的渐变_21"/><linearGradient id="未命名的渐变_21-117" x1="48.44" y1="-5.18" x2="151.88" y2="169.75" xlink:href="#未命名的渐变_21"/><linearGradient id="未命名的渐变_21-118" x1="52.32" y1="-7.47" x2="155.76" y2="167.46" xlink:href="#未命名的渐变_21"/><linearGradient id="未命名的渐变_21-119" x1="44.6" y1="-2.91" x2="148.04" y2="172.02" xlink:href="#未命名的渐变_21"/><linearGradient id="未命名的渐变_21-120" x1="81.42" y1="-24.68" x2="184.86" y2="150.25" xlink:href="#未命名的渐变_21"/><linearGradient id="未命名的渐变_21-121" x1="71.51" y1="-24.59" x2="174.95" y2="150.34" xlink:href="#未命名的渐变_21"/><linearGradient id="未命名的渐变_21-122" x1="70.67" y1="-18.32" x2="174.11" y2="156.61" xlink:href="#未命名的渐变_21"/><linearGradient id="未命名的渐变_21-123" x1="63.84" y1="-20.05" x2="167.27" y2="154.88" xlink:href="#未命名的渐变_21"/><linearGradient id="未命名的渐变_21-124" x1="75.35" y1="-26.86" x2="178.79" y2="148.07" xlink:href="#未命名的渐变_21"/><linearGradient id="未命名的渐变_21-125" x1="-56.25" y1="50.95" x2="47.19" y2="225.88" xlink:href="#未命名的渐变_21"/><linearGradient id="未命名的渐变_21-126" x1="25.41" y1="8.44" x2="128.84" y2="183.37" xlink:href="#未命名的渐变_21"/><linearGradient id="未命名的渐变_21-127" x1="32.46" y1="4.27" x2="135.9" y2="179.2" xlink:href="#未命名的渐变_21"/><linearGradient id="未命名的渐变_21-128" x1="28.62" y1="6.54" x2="132.06" y2="181.47" xlink:href="#未命名的渐变_21"/><linearGradient id="未命名的渐变_21-129" x1="36.3" y1="2" x2="139.74" y2="176.93" xlink:href="#未命名的渐变_21"/><linearGradient id="未命名的渐变_21-130" x1="24.78" y1="8.81" x2="128.22" y2="183.74" xlink:href="#未命名的渐变_21"/><linearGradient id="未命名的渐变_21-131" x1="20.94" y1="11.08" x2="124.38" y2="186.01" xlink:href="#未命名的渐变_21"/><linearGradient id="未命名的渐变_21-132" x1="10.27" y1="11.62" x2="113.7" y2="186.55" xlink:href="#未命名的渐变_21"/><linearGradient id="未命名的渐变_21-133" x1="17.11" y1="13.35" x2="120.54" y2="188.28" xlink:href="#未命名的渐变_21"/><linearGradient id="未命名的渐变_21-134" x1="51.66" y1="-7.08" x2="155.09" y2="167.85" xlink:href="#未命名的渐变_21"/><linearGradient id="未命名的渐变_21-135" x1="59.34" y1="-11.62" x2="162.77" y2="163.31" xlink:href="#未命名的渐变_21"/><linearGradient id="未命名的渐变_21-136" x1="11.28" y1="16.8" x2="114.72" y2="191.73" xlink:href="#未命名的渐变_21"/><linearGradient id="未命名的渐变_21-137" x1="18.53" y1="12.51" x2="121.97" y2="187.44" xlink:href="#未命名的渐变_21"/><linearGradient id="未命名的渐变_21-138" x1="16.52" y1="7.93" x2="119.95" y2="182.86" xlink:href="#未命名的渐变_21"/><linearGradient id="未命名的渐变_21-139" x1="52.5" y1="-13.35" x2="155.93" y2="161.58" xlink:href="#未命名的渐变_21"/><linearGradient id="未命名的渐变_21-140" x1="40.98" y1="-6.54" x2="144.42" y2="168.39" xlink:href="#未命名的渐变_21"/><linearGradient id="未命名的渐变_21-141" x1="6.43" y1="13.89" x2="109.86" y2="188.82" xlink:href="#未命名的渐变_21"/><linearGradient id="未命名的渐变_21-142" x1="37.14" y1="-4.27" x2="140.58" y2="170.66" xlink:href="#未命名的渐变_21"/><linearGradient id="未命名的渐变_21-143" x1="0.32" y1="23.28" x2="103.76" y2="198.21" xlink:href="#未命名的渐变_21"/><linearGradient id="未命名的渐变_21-144" x1="-3.52" y1="25.55" x2="99.92" y2="200.48" xlink:href="#未命名的渐变_21"/><linearGradient id="未命名的渐变_21-145" x1="-14.2" y1="26.09" x2="89.24" y2="201.02" xlink:href="#未命名的渐变_21"/><linearGradient id="未命名的渐变_21-146" x1="-7.36" y1="27.82" x2="96.08" y2="202.75" xlink:href="#未命名的渐变_21"/><linearGradient id="未命名的渐变_21-147" x1="1.16" y1="17.01" x2="104.6" y2="191.94" xlink:href="#未命名的渐变_21"/><linearGradient id="未命名的渐变_21-148" x1="15.68" y1="14.2" x2="119.11" y2="189.13" xlink:href="#未命名的渐变_21"/><linearGradient id="未命名的渐变_21-149" x1="8.84" y1="12.47" x2="112.27" y2="187.4" xlink:href="#未命名的渐变_21"/><linearGradient id="未命名的渐变_21-150" x1="8" y1="18.74" x2="111.44" y2="193.67" xlink:href="#未命名的渐变_21"/><linearGradient id="未命名的渐变_21-151" x1="-2.09" y1="24.7" x2="101.35" y2="199.63" xlink:href="#未命名的渐变_21"/><linearGradient id="未命名的渐变_21-152" x1="-8.97" y1="28.77" x2="94.47" y2="203.7" xlink:href="#未命名的渐变_21"/><linearGradient id="未命名的渐变_21-153" x1="-15.04" y1="32.36" x2="88.4" y2="207.29" xlink:href="#未命名的渐变_21"/><linearGradient id="未命名的渐变_21-154" x1="1.75" y1="22.43" x2="105.18" y2="197.36" xlink:href="#未命名的渐变_21"/><linearGradient id="未命名的渐变_21-155" x1="5.59" y1="20.16" x2="109.02" y2="195.09" xlink:href="#未命名的渐变_21"/><linearGradient id="未命名的渐变_21-156" x1="-18.92" y1="34.65" x2="84.52" y2="209.58" xlink:href="#未命名的渐变_21"/><linearGradient id="未命名的渐变_21-157" x1="-15.84" y1="32.84" x2="87.59" y2="207.77" xlink:href="#未命名的渐变_21"/><linearGradient id="未命名的渐变_21-158" x1="-22.72" y1="36.9" x2="80.72" y2="211.83" xlink:href="#未命名的渐变_21"/><linearGradient id="未命名的渐变_21-159" x1="47.82" y1="-4.81" x2="151.26" y2="170.12" xlink:href="#未命名的渐变_21"/><linearGradient id="未命名的渐变_21-160" x1="99.37" y1="-35.29" x2="202.81" y2="139.64" xlink:href="#未命名的渐变_21"/><linearGradient id="未命名的渐变_21-161" x1="91.53" y1="-30.65" x2="194.96" y2="144.28" xlink:href="#未命名的渐变_21"/><linearGradient id="未命名的渐变_21-162" x1="82.82" y1="-25.5" x2="186.25" y2="149.43" xlink:href="#未命名的渐变_21"/><linearGradient id="未命名的渐变_21-163" x1="95.79" y1="-33.17" x2="199.22" y2="141.76" xlink:href="#未命名的渐变_21"/><linearGradient id="未命名的渐变_21-164" x1="86.97" y1="-27.96" x2="190.41" y2="146.97" xlink:href="#未命名的渐变_21"/><linearGradient id="未命名的渐变_21-165" x1="71.3" y1="-18.69" x2="174.74" y2="156.24" xlink:href="#未命名的渐变_21"/><linearGradient id="未命名的渐变_21-166" x1="67.46" y1="-16.42" x2="170.9" y2="158.51" xlink:href="#未命名的渐变_21"/><linearGradient id="未命名的渐变_21-167" x1="72.14" y1="-24.96" x2="175.57" y2="149.97" xlink:href="#未命名的渐变_21"/><linearGradient id="未命名的渐变_21-168" x1="78.98" y1="-23.23" x2="182.41" y2="151.7" xlink:href="#未命名的渐变_21"/><linearGradient id="未命名的渐变_21-169" x1="117.37" y1="-45.93" x2="220.81" y2="129" xlink:href="#未命名的渐变_21"/><linearGradient id="未命名的渐变_21-170" x1="121.21" y1="-48.2" x2="224.65" y2="126.73" xlink:href="#未命名的渐变_21"/><linearGradient id="未命名的渐变_21-171" x1="125.05" y1="-50.47" x2="228.48" y2="124.46" xlink:href="#未命名的渐变_21"/><linearGradient id="未命名的渐变_21-172" x1="102.85" y1="-43.12" x2="206.29" y2="131.81" xlink:href="#未命名的渐变_21"/><linearGradient id="未命名的渐变_21-173" x1="110.53" y1="-47.66" x2="213.97" y2="127.27" xlink:href="#未命名的渐变_21"/><linearGradient id="未命名的渐变_21-174" x1="102.62" y1="-37.21" x2="206.06" y2="137.72" xlink:href="#未命名的渐变_21"/><linearGradient id="未命名的渐变_21-175" x1="109.69" y1="-41.39" x2="213.13" y2="133.54" xlink:href="#未命名的渐变_21"/><linearGradient id="未命名的渐变_21-176" x1="53.71" y1="-8.29" x2="157.15" y2="166.64" xlink:href="#未命名的渐变_21"/><linearGradient id="未命名的渐变_21-177" x1="46.03" y1="-3.75" x2="149.47" y2="171.18" xlink:href="#未命名的渐变_21"/><linearGradient id="未命名的渐变_21-178" x1="47.02" y1="-4.34" x2="150.46" y2="170.59" xlink:href="#未命名的渐变_21"/><linearGradient id="未命名的渐变_21-179" x1="49.87" y1="-6.02" x2="153.31" y2="168.91" xlink:href="#未命名的渐变_21"/><linearGradient id="未命名的渐变_21-180" x1="39.16" y1="0.31" x2="142.59" y2="175.24" xlink:href="#未命名的渐变_21"/><linearGradient id="未命名的渐变_21-181" x1="40" y1="-5.96" x2="143.43" y2="168.97" xlink:href="#未命名的渐变_21"/><linearGradient id="未命名的渐变_21-182" x1="36.12" y1="2.11" x2="139.56" y2="177.04" xlink:href="#未命名的渐变_21"/><linearGradient id="未命名的渐变_21-183" x1="32.28" y1="4.38" x2="135.72" y2="179.31" xlink:href="#未命名的渐变_21"/><linearGradient id="未命名的渐变_21-184" x1="53.75" y1="-14.09" x2="157.18" y2="160.84" xlink:href="#未命名的渐变_21"/><linearGradient id="未命名的渐变_21-185" x1="57.83" y1="-10.73" x2="161.27" y2="164.2" xlink:href="#未命名的渐变_21"/><linearGradient id="未命名的渐变_21-186" x1="68.26" y1="-16.9" x2="171.7" y2="158.03" xlink:href="#未命名的渐变_21"/><linearGradient id="未命名的渐变_21-187" x1="59.78" y1="-11.88" x2="163.22" y2="163.05" xlink:href="#未命名的渐变_21"/><linearGradient id="未命名的渐变_21-188" x1="61.42" y1="-18.63" x2="164.86" y2="156.3" xlink:href="#未命名的渐变_21"/><linearGradient id="未命名的渐变_21-189" x1="52.91" y1="-7.82" x2="156.34" y2="167.11" xlink:href="#未命名的渐变_21"/><linearGradient id="未命名的渐变_21-190" x1="60.59" y1="-12.36" x2="164.02" y2="162.57" xlink:href="#未命名的渐变_21"/><linearGradient id="未命名的渐变_21-191" x1="60.62" y1="-18.15" x2="164.06" y2="156.78" xlink:href="#未命名的渐变_21"/><linearGradient id="未命名的渐变_21-192" x1="15.89" y1="8.3" x2="119.33" y2="183.23" xlink:href="#未命名的渐变_21"/><linearGradient id="未命名的渐变_21-193" x1="-37.89" y1="45.87" x2="65.54" y2="220.8" xlink:href="#未命名的渐变_21"/><linearGradient id="未命名的渐变_21-194" x1="-41.73" y1="48.14" x2="61.7" y2="223.07" xlink:href="#未命名的渐变_21"/><linearGradient id="未命名的渐变_21-195" x1="-45.57" y1="50.41" x2="57.87" y2="225.34" xlink:href="#未命名的渐变_21"/><linearGradient id="未命名的渐变_21-196" x1="-34.05" y1="43.6" x2="69.38" y2="218.53" xlink:href="#未命名的渐变_21"/><linearGradient id="未命名的渐变_21-197" x1="-27.34" y1="39.63" x2="76.09" y2="214.56" xlink:href="#未命名的渐变_21"/><linearGradient id="未命名的渐变_21-198" x1="-30.21" y1="41.33" x2="73.22" y2="216.26" xlink:href="#未命名的渐变_21"/><linearGradient id="未命名的渐变_21-199" x1="-52.41" y1="48.68" x2="51.03" y2="223.61" xlink:href="#未命名的渐变_21"/><linearGradient id="未命名的渐变_21-200" x1="-57.09" y1="57.22" x2="46.35" y2="232.15" xlink:href="#未命名的渐变_21"/><linearGradient id="未命名的渐变_21-201" x1="-31.02" y1="41.81" x2="72.42" y2="216.74" xlink:href="#未命名的渐变_21"/><linearGradient id="未命名的渐变_21-202" x1="-49.37" y1="46.89" x2="54.06" y2="221.82" xlink:href="#未命名的渐变_21"/><linearGradient id="未命名的渐变_21-203" x1="-42.54" y1="48.62" x2="60.9" y2="223.55" xlink:href="#未命名的渐变_21"/><linearGradient id="未命名的渐变_21-204" x1="-38.7" y1="46.35" x2="64.74" y2="221.28" xlink:href="#未命名的渐变_21"/><linearGradient id="未命名的渐变_21-205" x1="-37.86" y1="40.08" x2="65.58" y2="215.01" xlink:href="#未命名的渐变_21"/><linearGradient id="未命名的渐变_21-206" x1="-50.21" y1="53.16" x2="53.22" y2="228.09" xlink:href="#未命名的渐变_21"/><linearGradient id="未命名的渐变_21-207" x1="-27.18" y1="39.54" x2="76.26" y2="214.47" xlink:href="#未命名的渐变_21"/><linearGradient id="未命名的渐变_21-208" x1="-23.34" y1="37.27" x2="80.1" y2="212.2" xlink:href="#未命名的渐变_21"/><linearGradient id="未命名的渐变_21-209" x1="-11.02" y1="29.98" x2="92.42" y2="204.91" xlink:href="#未命名的渐变_21"/><linearGradient id="未命名的渐变_21-210" x1="-12.62" y1="30.93" x2="90.82" y2="205.86" xlink:href="#未命名的渐变_21"/><linearGradient id="未命名的渐变_21-211" x1="-7.18" y1="27.71" x2="96.26" y2="202.64" xlink:href="#未命名的渐变_21"/><linearGradient id="未命名的渐变_21-212" x1="-20.3" y1="35.47" x2="83.13" y2="210.4" xlink:href="#未命名的渐变_21"/><linearGradient id="未命名的渐变_21-213" x1="-16.46" y1="33.2" x2="86.97" y2="208.13" xlink:href="#未命名的渐变_21"/><linearGradient id="未命名的渐变_21-214" x1="15.05" y1="14.57" x2="118.49" y2="189.5" xlink:href="#未命名的渐变_21"/><linearGradient id="未命名的渐变_21-215" x1="-10.42" y1="29.63" x2="93.01" y2="204.56" xlink:href="#未命名的渐变_21"/><linearGradient id="未命名的渐变_21-216" x1="-18.7" y1="34.52" x2="84.74" y2="209.45" xlink:href="#未命名的渐变_21"/><linearGradient id="未命名的渐变_21-217" x1="-14.86" y1="32.25" x2="88.58" y2="207.18" xlink:href="#未命名的渐变_21"/><linearGradient id="未命名的渐变_21-218" x1="4.34" y1="20.9" x2="107.78" y2="195.83" xlink:href="#未命名的渐变_21"/><linearGradient id="未命名的渐变_21-219" x1="0.5" y1="23.17" x2="103.94" y2="198.1" xlink:href="#未命名的渐变_21"/><linearGradient id="未命名的渐变_21-220" x1="-3.34" y1="25.44" x2="100.1" y2="200.37" xlink:href="#未命名的渐变_21"/><linearGradient id="未命名的渐变_21-221" x1="12.02" y1="16.36" x2="115.45" y2="191.29" xlink:href="#未命名的渐变_21"/><linearGradient id="未命名的渐变_21-222" x1="11.21" y1="16.84" x2="114.65" y2="191.77" xlink:href="#未命名的渐变_21"/><linearGradient id="未命名的渐变_21-223" x1="22.77" y1="4.23" x2="126.2" y2="179.16" xlink:href="#未命名的渐变_21"/><linearGradient id="未命名的渐变_21-224" x1="5.18" y1="14.63" x2="108.61" y2="189.56" xlink:href="#未命名的渐变_21"/><linearGradient id="未命名的渐变_21-225" x1="42.51" y1="-1.67" x2="145.94" y2="173.26" xlink:href="#未命名的渐变_21"/><linearGradient id="未命名的渐变_21-226" x1="28.34" y1="6.71" x2="131.78" y2="181.64" xlink:href="#未命名的渐变_21"/><linearGradient id="未命名的渐变_21-227" x1="24.65" y1="8.89" x2="128.09" y2="183.82" xlink:href="#未命名的渐变_21"/><linearGradient id="未命名的渐变_21-228" x1="31.84" y1="4.64" x2="135.27" y2="179.57" xlink:href="#未命名的渐变_21"/><linearGradient id="未命名的渐变_21-229" x1="20.32" y1="11.45" x2="123.76" y2="186.38" xlink:href="#未命名的渐变_21"/><linearGradient id="未命名的渐变_21-230" x1="32.68" y1="-1.63" x2="136.11" y2="173.3" xlink:href="#未命名的渐变_21"/><linearGradient id="未命名的渐变_21-231" x1="8.8" y1="18.26" x2="112.24" y2="193.19" xlink:href="#未命名的渐变_21"/><linearGradient id="未命名的渐变_21-232" x1="9.64" y1="11.99" x2="113.08" y2="186.92" xlink:href="#未命名的渐变_21"/><linearGradient id="未命名的渐变_21-233" x1="16.48" y1="13.72" x2="119.92" y2="188.65" xlink:href="#未命名的渐变_21"/><linearGradient id="未命名的渐变_21-234" x1="39.52" y1="0.1" x2="142.95" y2="175.03" xlink:href="#未命名的渐变_21"/><linearGradient id="未命名的渐变_21-235" x1="34.87" y1="2.85" x2="138.31" y2="177.78" xlink:href="#未命名的渐变_21"/><linearGradient id="未命名的渐变_21-236" x1="4.96" y1="20.53" x2="108.4" y2="195.46" xlink:href="#未命名的渐变_21"/><linearGradient id="未命名的渐变_21-237" x1="27.19" y1="7.39" x2="130.63" y2="182.32" xlink:href="#未命名的渐变_21"/><linearGradient id="未命名的渐变_21-238" x1="28.03" y1="1.12" x2="131.47" y2="176.05" xlink:href="#未命名的渐变_21"/><linearGradient id="未命名的渐变_21-239" x1="38.48" y1="0.71" x2="141.92" y2="175.64" xlink:href="#未命名的渐变_21"/><linearGradient id="未命名的渐变_21-240" x1="43.39" y1="-7.96" x2="146.83" y2="166.97" xlink:href="#未命名的渐变_21"/><linearGradient id="未命名的渐变_21-241" x1="23.36" y1="9.66" x2="126.79" y2="184.59" xlink:href="#未命名的渐变_21"/><linearGradient id="未命名的渐变_21-242" x1="-32.63" y1="42.76" x2="70.81" y2="217.69" xlink:href="#未命名的渐变_21"/><linearGradient id="未命名的渐变_21-243" x1="-32.46" y1="42.66" x2="70.98" y2="217.59" xlink:href="#未命名的渐变_21"/><linearGradient id="未命名的渐变_21-244" x1="-28.79" y1="40.49" x2="74.65" y2="215.42" xlink:href="#未命名的渐变_21"/><linearGradient id="未命名的渐变_21-245" x1="-36.46" y1="45.03" x2="66.97" y2="219.96" xlink:href="#未命名的渐变_21"/><linearGradient id="未命名的渐变_21-246" x1="1.12" y1="22.8" x2="104.56" y2="197.73" xlink:href="#未命名的渐变_21"/><linearGradient id="未命名的渐变_21-247" x1="-43.34" y1="49.09" x2="60.1" y2="224.02" xlink:href="#未命名的渐变_21"/><linearGradient id="未命名的渐变_21-248" x1="-29.59" y1="40.96" x2="73.85" y2="215.89" xlink:href="#未命名的渐变_21"/><linearGradient id="未命名的渐变_21-249" x1="-42.5" y1="42.82" x2="60.94" y2="217.75" xlink:href="#未命名的渐变_21"/><linearGradient id="未命名的渐变_21-250" x1="-35.66" y1="44.55" x2="67.78" y2="219.48" xlink:href="#未命名的渐变_21"/><linearGradient id="未命名的渐变_21-251" x1="-9.55" y1="23.34" x2="93.88" y2="198.27" xlink:href="#未命名的渐变_21"/><linearGradient id="未命名的渐变_21-252" x1="-10.33" y1="29.58" x2="93.1" y2="204.51" xlink:href="#未命名的渐变_21"/><linearGradient id="未命名的渐变_21-253" x1="-2.72" y1="25.07" x2="100.72" y2="200" xlink:href="#未命名的渐变_21"/><linearGradient id="未命名的渐变_21-254" x1="-25.75" y1="38.69" x2="77.69" y2="213.62" xlink:href="#未命名的渐变_21"/><linearGradient id="未命名的渐变_21-255" x1="-14.05" y1="31.77" x2="89.39" y2="206.7" xlink:href="#未命名的渐变_21"/><linearGradient id="未命名的渐变_21-256" x1="-21.91" y1="36.42" x2="81.53" y2="211.35" xlink:href="#未命名的渐变_21"/><linearGradient id="未命名的渐变_21-257" x1="-18.07" y1="34.15" x2="85.36" y2="209.08" xlink:href="#未命名的渐变_21"/><linearGradient id="未命名的渐变_9" x1="12.71" y1="87.3" x2="175.88" y2="87.3" gradientUnits="userSpaceOnUse"><stop offset="0" stop-color="#00b368"/><stop offset="0.19" stop-color="#00b368" stop-opacity="0.97"/><stop offset="0.42" stop-color="#00b368" stop-opacity="0.89"/><stop offset="0.65" stop-color="#00b368" stop-opacity="0.76"/><stop offset="0.9" stop-color="#00b368" stop-opacity="0.58"/><stop offset="1" stop-color="#00b368" stop-opacity="0.5"/></linearGradient></defs><path class="cls-1" d="M191.15,93.07l7-8c6.59,6.83,15.73,11.33,25.23,11.33,12,0,19.12-6,19.12-14.86,0-9.34-6.62-12.32-15.26-16.09l-13.13-5.79c-8.52-3.64-18.52-10.1-18.52-23.55,0-14,12.18-24.27,28.79-24.27a37.75,37.75,0,0,1,26.92,11.33l-6.17,7.48c-5.6-5.29-12.3-8.58-20.75-8.58-10.25,0-17.05,5.17-17.05,13.35,0,8.81,8,12.11,15.14,15.14l13,5.64C246,60.75,254.3,67.06,254.3,80.65c0,14.45-11.94,26-31.16,26A43.87,43.87,0,0,1,191.15,93.07Z" transform="translate(-3 -4)"/><path class="cls-1" d="M272.19,13.52h14l17.53,48.86c2.2,6.25,4.3,12.71,6.5,19.06h.55c2.2-6.35,4.13-12.81,6.33-19.06l17.32-48.86h14V105H337.63V54.62c0-8,.89-18.95,1.48-27h-.56l-7.26,20.85-17.22,47.3h-7.71l-17.31-47.3L281.8,27.58h-.56c.59,8.09,1.48,19.07,1.48,27V105H272.19Z" transform="translate(-3 -4)"/><path class="cls-1" d="M392.29,13.52h13.13L436.35,105H424L408.08,53.9c-3.29-10.23-6.22-20.27-9.16-30.82h-.55c-2.83,10.61-5.77,20.59-9.05,30.82L373.19,105H361.35ZM377.62,67.83h42.1v9.28h-42.1Z" transform="translate(-3 -4)"/><path class="cls-1" d="M448.72,13.52h28.64c18.63,0,32,6.69,32,25.74,0,18.26-13.37,27.06-32,27.06h-17V105H448.72Zm27,43.36c14.23,0,22.06-5.77,22.06-17.62,0-12-7.83-16.3-22.06-16.3H460.36V56.88Zm-.62,6.25,9.11-6L512.09,105H498.9Z" transform="translate(-3 -4)"/><path class="cls-1" d="M545.09,23.37H517.43V13.52h67v9.85H556.73V105H545.09Z" transform="translate(-3 -4)"/><g class="cls-2"><path class="cls-3" d="M197.92,93.06l7-8c6.58,6.83,15.72,11.33,25.23,11.33,12,0,19.11-6,19.11-14.86,0-9.34-6.62-12.32-15.25-16.09l-13.14-5.79c-8.52-3.64-18.51-10.1-18.51-23.55,0-14,12.17-24.27,28.78-24.27A37.74,37.74,0,0,1,258,23.18l-6.17,7.47c-5.6-5.28-12.31-8.57-20.76-8.57-10.25,0-17,5.17-17,13.35,0,8.81,8,12.11,15.13,15.13l13,5.64c10.59,4.55,18.84,10.86,18.84,24.45,0,14.45-11.93,26-31.16,26A43.82,43.82,0,0,1,197.92,93.06Z" transform="translate(-3 -4)"/><path class="cls-3" d="M279,13.52h14l17.53,48.86c2.2,6.25,4.3,12.71,6.5,19.06h.56c2.2-6.35,4.12-12.81,6.32-19.06l17.32-48.86h14V105H344.39V54.62c0-8,.89-19,1.48-27h-.56l-7.26,20.85-17.22,47.3h-7.71l-17.31-47.3-7.25-20.85H288c.58,8.08,1.48,19.07,1.48,27V105H279Z" transform="translate(-3 -4)"/><path class="cls-3" d="M399.05,13.52h13.13L443.11,105H430.79l-16-51.08c-3.28-10.22-6.22-20.26-9.15-30.81h-.56c-2.83,10.6-5.76,20.59-9.05,30.81L380,105H368.12ZM384.38,67.83h42.1v9.28h-42.1Z" transform="translate(-3 -4)"/><path class="cls-3" d="M455.49,13.52h28.63c18.63,0,32,6.69,32,25.74,0,18.26-13.37,27.06-32,27.06h-17V105H455.49Zm27,43.36c14.23,0,22.07-5.77,22.07-17.62,0-12-7.84-16.3-22.07-16.3H467.12V56.88Zm-.62,6.25,9.12-6L518.85,105H505.66Z" transform="translate(-3 -4)"/><path class="cls-3" d="M551.85,23.37H524.19V13.52h67v9.85H563.49V105H551.85Z" transform="translate(-3 -4)"/></g><path class="cls-3" d="M195.52,121.66h3.3L204,137.53h-3l-2.42-8.44c-.51-1.68-1-3.49-1.44-5.23h-.09c-.44,1.75-.91,3.55-1.41,5.23l-2.44,8.44h-2.87ZM193.41,131h7.47v2.21h-7.47Z" transform="translate(-3 -4)"/><path class="cls-3" d="M212.41,121.66h4.23c4.87,0,7.74,2.62,7.74,7.87s-2.87,8-7.59,8h-4.38Zm4.05,13.59c3.19,0,5-1.81,5-5.72s-1.84-5.59-5-5.59h-1.23v11.31Z" transform="translate(-3 -4)"/><path class="cls-3" d="M227.57,134.33c0-2.55,2.12-3.88,7-4.41,0-1.28-.56-2.35-2.17-2.35a6.62,6.62,0,0,0-3.35,1.18l-1-1.87a9.3,9.3,0,0,1,4.89-1.56c3,0,4.44,1.84,4.44,5.16v7.05h-2.29l-.21-1.32h-.08a5.78,5.78,0,0,1-3.7,1.61A3.34,3.34,0,0,1,227.57,134.33Zm7,0v-2.68c-3.24.41-4.31,1.25-4.31,2.45s.72,1.52,1.72,1.52A3.79,3.79,0,0,0,234.58,134.34Z" transform="translate(-3 -4)"/><path class="cls-3" d="M241.63,133.51v-5.67h-1.69v-2.1l1.84-.13.33-3.25h2.32v3.25h3v2.23h-3v5.67c0,1.4.54,2.09,1.69,2.09a3.92,3.92,0,0,0,1.24-.27l.47,2.06a7.84,7.84,0,0,1-2.43.43C242.65,137.82,241.63,136.08,241.63,133.51Z" transform="translate(-3 -4)"/><path class="cls-3" d="M249.7,134.33c0-2.55,2.12-3.88,7-4.41,0-1.28-.56-2.35-2.17-2.35a6.62,6.62,0,0,0-3.35,1.18l-1-1.87a9.3,9.3,0,0,1,4.89-1.56c3,0,4.44,1.84,4.44,5.16v7.05h-2.29l-.21-1.32h-.08a5.78,5.78,0,0,1-3.7,1.61A3.34,3.34,0,0,1,249.7,134.33Zm7,0v-2.68c-3.23.41-4.31,1.25-4.31,2.45s.72,1.52,1.72,1.52A3.79,3.79,0,0,0,256.71,134.34Z" transform="translate(-3 -4)"/><path class="cls-3" d="M266.26,136.28h-.08l-.24,1.25h-2.2V120.39h2.79v4.44l-.08,2a5.4,5.4,0,0,1,3.44-1.49c3,0,4.7,2.39,4.7,6.05,0,4.09-2.43,6.45-5.08,6.45A4.77,4.77,0,0,1,266.26,136.28Zm5.46-4.86c0-2.38-.77-3.79-2.59-3.79a3.75,3.75,0,0,0-2.6,1.34v5.55a3.66,3.66,0,0,0,2.39,1C270.51,135.51,271.72,134.11,271.72,131.42Z" transform="translate(-3 -4)"/><path class="cls-3" d="M277.34,134.33c0-2.55,2.11-3.88,7-4.41,0-1.28-.56-2.35-2.17-2.35a6.62,6.62,0,0,0-3.35,1.18l-1-1.87a9.37,9.37,0,0,1,4.9-1.56c3,0,4.44,1.84,4.44,5.16v7.05h-2.29l-.21-1.32h-.08a5.78,5.78,0,0,1-3.7,1.61A3.34,3.34,0,0,1,277.34,134.33Zm7,0v-2.68c-3.24.41-4.31,1.25-4.31,2.45s.71,1.52,1.71,1.52A3.79,3.79,0,0,0,284.35,134.34Z" transform="translate(-3 -4)"/><path class="cls-3" d="M290.19,136.16l1.3-1.77a5.29,5.29,0,0,0,3.29,1.33c1.3,0,1.91-.62,1.91-1.43,0-1-1.29-1.45-2.56-1.93-1.56-.59-3.35-1.49-3.35-3.48s1.67-3.56,4.34-3.56a6.43,6.43,0,0,1,4,1.43l-1.28,1.72a4.49,4.49,0,0,0-2.61-1c-1.2,0-1.77.57-1.77,1.32,0,.94,1.21,1.3,2.5,1.77,1.61.61,3.41,1.38,3.41,3.6,0,2-1.62,3.7-4.63,3.7A7.44,7.44,0,0,1,290.19,136.16Z" transform="translate(-3 -4)"/><path class="cls-3" d="M301.92,131.58c0-3.87,2.69-6.26,5.49-6.26,3.23,0,4.92,2.33,4.92,5.66a6.75,6.75,0,0,1-.12,1.36h-7.56a3.39,3.39,0,0,0,3.51,3.32,5.06,5.06,0,0,0,2.77-.87l.95,1.74a7.38,7.38,0,0,1-4.09,1.29C304.5,137.82,301.92,135.51,301.92,131.58Zm8-1.14c0-1.84-.82-3-2.45-3-1.39,0-2.61,1-2.85,3Z" transform="translate(-3 -4)"/><path class="cls-3" d="M320.48,125.74l1.75-.13h5v2.23h-6.73Zm1.61-1.36c0-2.47,1.13-4.28,4-4.28a6.11,6.11,0,0,1,2.18.42l-.53,2.08a3.46,3.46,0,0,0-1.3-.28c-1,0-1.51.63-1.51,2v13.2h-2.79Z" transform="translate(-3 -4)"/><path class="cls-3" d="M329.15,131.58c0-4,2.69-6.26,5.66-6.26s5.67,2.29,5.67,6.26-2.7,6.24-5.67,6.24S329.15,135.53,329.15,131.58Zm8.46,0c0-2.39-1.05-4-2.8-4s-2.79,1.59-2.79,4,1.05,4,2.79,4S337.61,134,337.61,131.58Z" transform="translate(-3 -4)"/><path class="cls-3" d="M344.13,125.61h2.29l.21,2.13h.08a4.08,4.08,0,0,1,3.39-2.42,3.14,3.14,0,0,1,1.35.24L351,128a4,4,0,0,0-1.22-.19c-.95,0-2.1.65-2.82,2.46v7.27h-2.79Z" transform="translate(-3 -4)"/><path class="cls-3" d="M358.94,135.5l1.64-1.93a6.21,6.21,0,0,0,4.13,1.81c1.79,0,2.77-.81,2.77-2s-1-1.72-2.47-2.34l-2.17-.94c-1.56-.65-3.21-1.88-3.21-4.2,0-2.53,2.24-4.48,5.33-4.48a6.93,6.93,0,0,1,4.89,2l-1.44,1.78a5.11,5.11,0,0,0-3.45-1.36c-1.5,0-2.48.7-2.48,1.86s1.21,1.71,2.52,2.25l2.14.9c1.89.78,3.21,2,3.21,4.28,0,2.57-2.14,4.71-5.7,4.71A8.16,8.16,0,0,1,358.94,135.5Z" transform="translate(-3 -4)"/><path class="cls-3" d="M373.88,125.61h2.29l.21,1.63h.08a5.14,5.14,0,0,1,3.66-1.92,3.22,3.22,0,0,1,3.29,2.14c1.14-1.22,2.32-2.14,3.83-2.14,2.52,0,3.68,1.73,3.68,4.74v7.47h-2.79v-7.11c0-2-.59-2.7-1.84-2.7a3.65,3.65,0,0,0-2.49,1.48v8.33H381v-7.11c0-2-.58-2.7-1.83-2.7a3.72,3.72,0,0,0-2.5,1.48v8.33h-2.79Z" transform="translate(-3 -4)"/><path class="cls-3" d="M394.57,134.33c0-2.55,2.11-3.88,7-4.41,0-1.28-.55-2.35-2.16-2.35a6.62,6.62,0,0,0-3.35,1.18l-1-1.87a9.33,9.33,0,0,1,4.89-1.56c3,0,4.45,1.84,4.45,5.16v7.05h-2.29l-.21-1.32h-.08a5.78,5.78,0,0,1-3.7,1.61A3.33,3.33,0,0,1,394.57,134.33Zm7,0v-2.68c-3.23.41-4.3,1.25-4.3,2.45s.71,1.52,1.71,1.52A3.77,3.77,0,0,0,401.57,134.34Z" transform="translate(-3 -4)"/><path class="cls-3" d="M408.6,134.46V120.39h2.8v14.22c0,.69.31.93.6.93a1.62,1.62,0,0,0,.44,0l.35,2.09a3.87,3.87,0,0,1-1.48.24C409.33,137.82,408.6,136.54,408.6,134.46Z" transform="translate(-3 -4)"/><path class="cls-3" d="M416.05,134.46V120.39h2.8v14.22c0,.69.31.93.6.93a1.62,1.62,0,0,0,.44,0l.35,2.09a3.87,3.87,0,0,1-1.48.24C416.78,137.82,416.05,136.54,416.05,134.46Z" transform="translate(-3 -4)"/><path class="cls-3" d="M429.47,121.66h3.19l2.8,7.76c.35,1,.67,2.07,1,3.11h.1c.35-1,.65-2.1,1-3.11l2.74-7.76h3.18v15.87h-2.58v-7.26c0-1.46.23-3.57.36-5h-.09l-1.29,3.68L437.29,136h-1.67L433,128.91l-1.26-3.68h-.09c.13,1.47.35,3.58.35,5v7.26h-2.53Z" transform="translate(-3 -4)"/><path class="cls-3" d="M447.4,131.58c0-4,2.69-6.26,5.66-6.26s5.67,2.29,5.67,6.26-2.7,6.24-5.67,6.24S447.4,135.53,447.4,131.58Zm8.46,0c0-2.39-1.05-4-2.8-4s-2.79,1.59-2.79,4,1.05,4,2.79,4S455.86,134,455.86,131.58Z" transform="translate(-3 -4)"/><path class="cls-3" d="M462.23,134.46V120.39H465v14.22c0,.69.31.93.6.93a1.56,1.56,0,0,0,.43,0l.35,2.09a3.81,3.81,0,0,1-1.47.24C463,137.82,462.23,136.54,462.23,134.46Z" transform="translate(-3 -4)"/><path class="cls-3" d="M468.9,131.58c0-3.87,2.68-6.26,5.49-6.26,3.22,0,4.92,2.33,4.92,5.66a7.57,7.57,0,0,1-.12,1.36h-7.57a3.39,3.39,0,0,0,3.52,3.32,5,5,0,0,0,2.76-.87l1,1.74a7.35,7.35,0,0,1-4.08,1.29C471.48,137.82,468.9,135.51,468.9,131.58Zm8-1.14c0-1.84-.81-3-2.44-3-1.39,0-2.61,1-2.86,3Z" transform="translate(-3 -4)"/><path class="cls-3" d="M482.07,131.58a5.89,5.89,0,0,1,6-6.26,5.07,5.07,0,0,1,3.48,1.34l-1.36,1.82a2.89,2.89,0,0,0-2-.88c-1.92,0-3.25,1.59-3.25,4s1.31,4,3.17,4a3.93,3.93,0,0,0,2.46-1l1.14,1.85a5.88,5.88,0,0,1-3.89,1.46C484.57,137.82,482.07,135.53,482.07,131.58Z" transform="translate(-3 -4)"/><path class="cls-3" d="M494.81,133.09v-7.48h2.79v7.12c0,2,.56,2.69,1.85,2.69,1.05,0,1.74-.48,2.64-1.65v-8.16h2.8v11.92H502.6l-.21-1.76h-.08a4.85,4.85,0,0,1-3.84,2C495.92,137.82,494.81,136.09,494.81,133.09Z" transform="translate(-3 -4)"/><path class="cls-3" d="M509.31,134.46V120.39h2.79v14.22c0,.69.31.93.6.93a1.58,1.58,0,0,0,.44,0l.35,2.09a3.81,3.81,0,0,1-1.47.24C510,137.82,509.31,136.54,509.31,134.46Z" transform="translate(-3 -4)"/><path class="cls-3" d="M516,131.58c0-3.87,2.69-6.26,5.49-6.26,3.23,0,4.92,2.33,4.92,5.66a6.75,6.75,0,0,1-.12,1.36H518.7a3.39,3.39,0,0,0,3.51,3.32,5.06,5.06,0,0,0,2.77-.87l.95,1.74a7.38,7.38,0,0,1-4.09,1.29C518.55,137.82,516,135.51,516,131.58Zm8-1.14c0-1.84-.82-3-2.45-3-1.39,0-2.61,1-2.85,3Z" transform="translate(-3 -4)"/><path class="cls-3" d="M528.75,136.16l1.3-1.77a5.29,5.29,0,0,0,3.29,1.33c1.3,0,1.91-.62,1.91-1.43,0-1-1.29-1.45-2.56-1.93-1.56-.59-3.35-1.49-3.35-3.48s1.67-3.56,4.34-3.56a6.43,6.43,0,0,1,4,1.43l-1.28,1.72a4.49,4.49,0,0,0-2.61-1c-1.2,0-1.77.57-1.77,1.32,0,.94,1.2,1.3,2.5,1.77,1.61.61,3.41,1.38,3.41,3.6,0,2-1.62,3.7-4.63,3.7A7.44,7.44,0,0,1,528.75,136.16Z" transform="translate(-3 -4)"/><path class="cls-3" d="M545.8,125.61h2.8l1.45,6.19c.23,1.15.41,2.27.62,3.43h.1c.23-1.16.46-2.31.75-3.43l1.57-6.19h2.53l1.59,6.19c.29,1.15.53,2.27.79,3.43h.09c.24-1.16.41-2.28.65-3.43l1.42-6.19h2.61l-3,11.92h-3.31L555,132c-.25-1.12-.47-2.21-.72-3.46h-.1c-.23,1.25-.43,2.36-.71,3.48l-1.34,5.54h-3.23Z" transform="translate(-3 -4)"/><path class="cls-3" d="M565.7,122a1.73,1.73,0,0,1,3.45,0,1.73,1.73,0,0,1-3.45,0Zm.32,3.66h2.79v11.92H566Z" transform="translate(-3 -4)"/><path class="cls-3" d="M573.67,133.51v-5.67H572v-2.1l1.84-.13.33-3.25h2.32v3.25h3v2.23h-3v5.67c0,1.4.54,2.09,1.69,2.09a3.87,3.87,0,0,0,1.24-.27l.48,2.06a7.85,7.85,0,0,1-2.44.43C574.68,137.82,573.67,136.08,573.67,133.51Z" transform="translate(-3 -4)"/><path class="cls-3" d="M582.88,120.39h2.8v4.44l-.12,2.3a5.5,5.5,0,0,1,3.81-1.81c2.56,0,3.67,1.73,3.67,4.74v7.47h-2.79v-7.11c0-2-.57-2.7-1.86-2.7-1,0-1.73.51-2.71,1.48v8.33h-2.8Z" transform="translate(-3 -4)"/><path class="cls-3" d="M192.42,149.4H202v2.36h-6.77v4.51H201v2.37h-5.77v6.62h-2.81Z" transform="translate(-3 -4)"/><path class="cls-3" d="M204.85,160.82v-7.47h2.8v7.11c0,2,.56,2.7,1.85,2.7,1.05,0,1.74-.49,2.64-1.65v-8.16h2.79v11.91h-2.29l-.21-1.75h-.08a4.85,4.85,0,0,1-3.83,2C206,165.55,204.85,163.83,204.85,160.82Z" transform="translate(-3 -4)"/><path class="cls-3" d="M219.35,153.35h2.29l.22,1.61h.07a5.56,5.56,0,0,1,3.92-1.9c2.55,0,3.66,1.72,3.66,4.73v7.47h-2.79v-7.11c0-2-.56-2.7-1.86-2.7-1,0-1.73.52-2.71,1.49v8.32h-2.8Z" transform="translate(-3 -4)"/><path class="cls-3" d="M233,159.31a5.89,5.89,0,0,1,6-6.25,5.11,5.11,0,0,1,3.48,1.33l-1.36,1.82a2.92,2.92,0,0,0-2-.87c-1.92,0-3.25,1.59-3.25,4s1.31,4,3.17,4a3.92,3.92,0,0,0,2.46-1l1.14,1.84a5.9,5.9,0,0,1-3.9,1.46C235.52,165.55,233,163.26,233,159.31Z" transform="translate(-3 -4)"/><path class="cls-3" d="M246.07,161.25v-5.68h-1.69v-2.1l1.84-.12.33-3.25h2.32v3.25h3v2.22h-3v5.67c0,1.4.54,2.09,1.69,2.09a3.62,3.62,0,0,0,1.24-.27l.48,2.06a7.85,7.85,0,0,1-2.44.43C247.09,165.55,246.07,163.82,246.07,161.25Z" transform="translate(-3 -4)"/><path class="cls-3" d="M255,149.68a1.74,1.74,0,1,1,1.73,1.58A1.6,1.6,0,0,1,255,149.68Zm.32,3.67h2.8v11.91h-2.8Z" transform="translate(-3 -4)"/><path class="cls-3" d="M261.74,159.31c0-4,2.69-6.25,5.66-6.25s5.67,2.29,5.67,6.25-2.7,6.24-5.67,6.24S261.74,163.26,261.74,159.31Zm8.46,0c0-2.38-1.05-4-2.8-4s-2.79,1.59-2.79,4,1.05,4,2.79,4S270.2,161.7,270.2,159.31Z" transform="translate(-3 -4)"/><path class="cls-3" d="M276.72,153.35H279l.21,1.61h.08a5.56,5.56,0,0,1,3.91-1.9c2.55,0,3.67,1.72,3.67,4.73v7.47h-2.8v-7.11c0-2-.56-2.7-1.85-2.7-1.05,0-1.74.52-2.72,1.49v8.32h-2.79Z" transform="translate(-3 -4)"/><path class="cls-3" d="M290.54,162.06c0-2.55,2.12-3.88,7-4.4,0-1.29-.56-2.35-2.17-2.35a6.61,6.61,0,0,0-3.35,1.17l-1-1.86a9.22,9.22,0,0,1,4.89-1.56c3,0,4.44,1.83,4.44,5.15v7h-2.29l-.21-1.32h-.08a5.73,5.73,0,0,1-3.7,1.61A3.34,3.34,0,0,1,290.54,162.06Zm7,0v-2.68c-3.24.41-4.31,1.25-4.31,2.46,0,1.05.72,1.51,1.72,1.51A3.75,3.75,0,0,0,297.55,162.07Z" transform="translate(-3 -4)"/><path class="cls-3" d="M304.58,162.2V148.13h2.79v14.21c0,.69.31.93.6.93a2,2,0,0,0,.44,0l.35,2.08a3.87,3.87,0,0,1-1.48.24C305.3,165.55,304.58,164.27,304.58,162.2Z" transform="translate(-3 -4)"/><path class="cls-3" d="M318,149.4h2.82v15.86H318Z" transform="translate(-3 -4)"/><path class="cls-3" d="M325.47,153.35h2.29L328,155h.08a5.12,5.12,0,0,1,3.66-1.91,3.21,3.21,0,0,1,3.29,2.13c1.14-1.21,2.32-2.13,3.83-2.13,2.52,0,3.68,1.72,3.68,4.73v7.47h-2.8v-7.11c0-2-.58-2.7-1.83-2.7a3.67,3.67,0,0,0-2.49,1.49v8.32h-2.8v-7.11c0-2-.58-2.7-1.83-2.7a3.75,3.75,0,0,0-2.5,1.49v8.32h-2.79Z" transform="translate(-3 -4)"/><path class="cls-3" d="M346.8,153.35h2.29l.21,1.27h.08a5.71,5.71,0,0,1,3.59-1.56c3,0,4.69,2.38,4.69,6.06,0,4.08-2.44,6.43-5.09,6.43a4.71,4.71,0,0,1-3.06-1.31l.08,2V170H346.8Zm8,5.8c0-2.38-.77-3.78-2.59-3.78a3.77,3.77,0,0,0-2.6,1.33v5.56a3.77,3.77,0,0,0,2.39,1C353.57,163.25,354.78,161.85,354.78,159.15Z" transform="translate(-3 -4)"/><path class="cls-3" d="M361.21,162.2V148.13H364v14.21c0,.69.31.93.6.93a2.06,2.06,0,0,0,.44,0l.34,2.08a3.78,3.78,0,0,1-1.47.24C361.94,165.55,361.21,164.27,361.21,162.2Z" transform="translate(-3 -4)"/><path class="cls-3" d="M368.34,149.68a1.74,1.74,0,1,1,1.73,1.58A1.6,1.6,0,0,1,368.34,149.68Zm.32,3.67h2.8v11.91h-2.8Z" transform="translate(-3 -4)"/><path class="cls-3" d="M375.11,159.31a5.88,5.88,0,0,1,6-6.25,5.12,5.12,0,0,1,3.49,1.33l-1.36,1.82a2.92,2.92,0,0,0-2-.87c-1.92,0-3.25,1.59-3.25,4s1.31,4,3.16,4a3.92,3.92,0,0,0,2.47-1l1.13,1.84a5.86,5.86,0,0,1-3.89,1.46C377.6,165.55,375.11,163.26,375.11,159.31Z" transform="translate(-3 -4)"/><path class="cls-3" d="M387.09,162.06c0-2.55,2.12-3.88,7-4.4,0-1.29-.55-2.35-2.16-2.35a6.57,6.57,0,0,0-3.35,1.17l-1-1.86a9.25,9.25,0,0,1,4.89-1.56c3,0,4.45,1.83,4.45,5.15v7h-2.29l-.22-1.32h-.08a5.7,5.7,0,0,1-3.69,1.61A3.34,3.34,0,0,1,387.09,162.06Zm7,0v-2.68c-3.23.41-4.31,1.25-4.31,2.46,0,1.05.72,1.51,1.72,1.51A3.73,3.73,0,0,0,394.1,162.07Z" transform="translate(-3 -4)"/><path class="cls-3" d="M401.16,161.25v-5.68h-1.7v-2.1l1.84-.12.33-3.25H404v3.25h3v2.22h-3v5.67c0,1.4.55,2.09,1.69,2.09a3.57,3.57,0,0,0,1.24-.27l.48,2.06a7.85,7.85,0,0,1-2.44.43C402.18,165.55,401.16,163.82,401.16,161.25Z" transform="translate(-3 -4)"/><path class="cls-3" d="M410.05,149.68a1.74,1.74,0,1,1,1.73,1.58A1.6,1.6,0,0,1,410.05,149.68Zm.33,3.67h2.79v11.91h-2.79Z" transform="translate(-3 -4)"/><path class="cls-3" d="M416.82,159.31c0-4,2.7-6.25,5.67-6.25s5.67,2.29,5.67,6.25-2.7,6.24-5.67,6.24S416.82,163.26,416.82,159.31Zm8.46,0c0-2.38-1-4-2.79-4s-2.8,1.59-2.8,4,1.05,4,2.8,4S425.28,161.7,425.28,159.31Z" transform="translate(-3 -4)"/><path class="cls-3" d="M431.8,153.35h2.29l.22,1.61h.07a5.56,5.56,0,0,1,3.91-1.9c2.56,0,3.67,1.72,3.67,4.73v7.47h-2.79v-7.11c0-2-.56-2.7-1.86-2.7-1,0-1.73.52-2.71,1.49v8.32h-2.8Z" transform="translate(-3 -4)"/><path class="cls-3" d="M445.08,163.9l1.3-1.78a5.29,5.29,0,0,0,3.29,1.33c1.3,0,1.91-.61,1.91-1.43,0-1-1.29-1.44-2.56-1.93-1.56-.59-3.35-1.48-3.35-3.47s1.67-3.56,4.34-3.56a6.43,6.43,0,0,1,4,1.42l-1.28,1.72a4.47,4.47,0,0,0-2.61-1c-1.2,0-1.77.57-1.77,1.32,0,.94,1.21,1.3,2.5,1.78,1.61.6,3.41,1.37,3.41,3.6,0,2-1.62,3.69-4.63,3.69A7.45,7.45,0,0,1,445.08,163.9Z" transform="translate(-3 -4)"/><path class="cls-3" d="M463,149.68a1.74,1.74,0,1,1,1.73,1.58A1.6,1.6,0,0,1,463,149.68Zm.32,3.67h2.8v11.91h-2.8Z" transform="translate(-3 -4)"/><path class="cls-3" d="M470.56,153.35h2.29l.21,1.61h.08a5.54,5.54,0,0,1,3.91-1.9c2.55,0,3.67,1.72,3.67,4.73v7.47h-2.8v-7.11c0-2-.56-2.7-1.85-2.7-1.05,0-1.74.52-2.72,1.49v8.32h-2.79Z" transform="translate(-3 -4)"/><path class="cls-3" d="M491,149.4h5c3.52,0,6.13,1.22,6.13,4.89s-2.62,5.14-6,5.14H493.8v5.83H491Zm4.86,7.78c2.37,0,3.49-.94,3.49-2.89s-1.23-2.64-3.59-2.64H493.8v5.53Z" transform="translate(-3 -4)"/><path class="cls-3" d="M505.74,162.2V148.13h2.8v14.21c0,.69.31.93.6.93a1.93,1.93,0,0,0,.43,0l.35,2.08a3.81,3.81,0,0,1-1.47.24C506.47,165.55,505.74,164.27,505.74,162.2Z" transform="translate(-3 -4)"/><path class="cls-3" d="M512.55,162.06c0-2.55,2.12-3.88,7-4.4,0-1.29-.56-2.35-2.17-2.35a6.61,6.61,0,0,0-3.35,1.17l-1-1.86a9.22,9.22,0,0,1,4.89-1.56c3,0,4.44,1.83,4.44,5.15v7h-2.29l-.21-1.32h-.08a5.73,5.73,0,0,1-3.7,1.61A3.34,3.34,0,0,1,512.55,162.06Zm7,0v-2.68c-3.23.41-4.31,1.25-4.31,2.46,0,1.05.72,1.51,1.72,1.51A3.75,3.75,0,0,0,519.56,162.07Z" transform="translate(-3 -4)"/><path class="cls-3" d="M526.58,153.35h2.3l.21,1.61h.08a5.54,5.54,0,0,1,3.91-1.9c2.55,0,3.67,1.72,3.67,4.73v7.47H534v-7.11c0-2-.56-2.7-1.85-2.7-1.05,0-1.74.52-2.72,1.49v8.32h-2.8Z" transform="translate(-3 -4)"/><path class="cls-3" d="M541.47,161.25v-5.68h-1.7v-2.1l1.84-.12.33-3.25h2.32v3.25h3v2.22h-3v5.67c0,1.4.54,2.09,1.69,2.09a3.62,3.62,0,0,0,1.24-.27l.48,2.06a7.85,7.85,0,0,1-2.44.43C542.48,165.55,541.47,163.82,541.47,161.25Z" transform="translate(-3 -4)"/><path class="cls-3" d="M549.25,163.9l1.31-1.78a5.27,5.27,0,0,0,3.29,1.33c1.3,0,1.91-.61,1.91-1.43,0-1-1.29-1.44-2.56-1.93-1.57-.59-3.35-1.48-3.35-3.47s1.67-3.56,4.34-3.56a6.42,6.42,0,0,1,3.95,1.42l-1.28,1.72a4.44,4.44,0,0,0-2.61-1c-1.2,0-1.76.57-1.76,1.32,0,.94,1.2,1.3,2.49,1.78,1.61.6,3.42,1.37,3.42,3.6,0,2-1.62,3.69-4.63,3.69A7.48,7.48,0,0,1,549.25,163.9Z" transform="translate(-3 -4)"/><path class="cls-4" d="M100,137.39a2.23,2.23,0,0,0-1.65,3.73c1.19-.38,2.49-.81,3.86-1.3a1.36,1.36,0,0,0,0-.2A2.23,2.23,0,0,0,100,137.39Z" transform="translate(-3 -4)"/><path class="cls-5" d="M118.52,128.63a2.23,2.23,0,0,0-1.24,4.08c1.17-.73,2.31-1.51,3.41-2.32A2.22,2.22,0,0,0,118.52,128.63Z" transform="translate(-3 -4)"/><path class="cls-6" d="M90.68,46.08a2.85,2.85,0,1,0-2.85-2.85A2.85,2.85,0,0,0,90.68,46.08Z" transform="translate(-3 -4)"/><path class="cls-7" d="M100,66.9a2.61,2.61,0,0,0-2.61,2.62,2.53,2.53,0,0,0,.35,1.28l4-3.19A2.62,2.62,0,0,0,100,66.9Z" transform="translate(-3 -4)"/><path class="cls-8" d="M127.8,119.87a2.22,2.22,0,0,0-.52,4.38h0c.85-1,1.66-2.13,2.45-3.23A2.22,2.22,0,0,0,127.8,119.87Z" transform="translate(-3 -4)"/><path class="cls-9" d="M93.59,34.47a2.91,2.91,0,1,0-2.91,2.91A2.91,2.91,0,0,0,93.59,34.47Z" transform="translate(-3 -4)"/><path class="cls-10" d="M137.08,67.2a2.32,2.32,0,1,0,0,4.63,2.29,2.29,0,0,0,2-1.15c-.41-1.13-.86-2.26-1.36-3.38A2.59,2.59,0,0,0,137.08,67.2Z" transform="translate(-3 -4)"/><path class="cls-11" d="M90.68,28.67a3,3,0,0,0,3-3,1.52,1.52,0,0,0,0-.21l-.28-.24c-1.09-.9-2.06-1.7-2.93-2.48a3,3,0,0,0,.27,5.9Z" transform="translate(-3 -4)"/><path class="cls-12" d="M127.8,14.39a2.55,2.55,0,0,0-2.51,2.07c1.4.78,2.76,1.6,4.1,2.46a2.54,2.54,0,0,0-1.59-4.53Z" transform="translate(-3 -4)"/><path class="cls-13" d="M100,37.27a2.81,2.81,0,1,0-2.8-2.8A2.8,2.8,0,0,0,100,37.27Z" transform="translate(-3 -4)"/><path class="cls-14" d="M137.08,23.29a2.41,2.41,0,0,0-1.14.29q1.76,1.38,3.43,2.86a2.6,2.6,0,0,0,.12-.74A2.41,2.41,0,0,0,137.08,23.29Z" transform="translate(-3 -4)"/><path class="cls-15" d="M137.08,10.64a2.46,2.46,0,1,0-2.46-2.46A2.46,2.46,0,0,0,137.08,10.64Z" transform="translate(-3 -4)"/><path class="cls-16" d="M137.08,102.34a2.23,2.23,0,1,0,0,4.46,1.81,1.81,0,0,0,.4,0c.46-1.2.89-2.41,1.28-3.63A2.19,2.19,0,0,0,137.08,102.34Z" transform="translate(-3 -4)"/><circle class="cls-17" cx="134.08" cy="83.04" r="2.27"/><circle class="cls-18" cx="134.08" cy="74.28" r="2.29"/><path class="cls-19" d="M137.08,93.55a2.26,2.26,0,1,0,2.25,2.26A2.26,2.26,0,0,0,137.08,93.55Z" transform="translate(-3 -4)"/><path class="cls-20" d="M111.62,70.37l-2,1.65A2.53,2.53,0,0,0,111.62,70.37Z" transform="translate(-3 -4)"/><path class="cls-21" d="M109.24,40.57a2.66,2.66,0,1,0,2.66,2.66A2.66,2.66,0,0,0,109.24,40.57Z" transform="translate(-3 -4)"/><path class="cls-22" d="M109.24,37.17a2.67,2.67,0,0,0,1-.19c-1.23-.67-2.44-1.38-3.64-2.12A2.68,2.68,0,0,0,109.24,37.17Z" transform="translate(-3 -4)"/><path class="cls-23" d="M109.24,93.39a2.41,2.41,0,0,0-.77,4.7l3.16-2.55A2.41,2.41,0,0,0,109.24,93.39Z" transform="translate(-3 -4)"/><path class="cls-24" d="M109.24,84.59A2.46,2.46,0,1,0,111.7,87,2.46,2.46,0,0,0,109.24,84.59Z" transform="translate(-3 -4)"/><path class="cls-25" d="M100,84.53A2.52,2.52,0,1,0,102.48,87,2.51,2.51,0,0,0,100,84.53Z" transform="translate(-3 -4)"/><circle class="cls-26" cx="96.96" cy="91.81" r="2.47"/><path class="cls-27" d="M100,102.15a2.42,2.42,0,0,0-1.67,4.17l3.73-3A2.42,2.42,0,0,0,100,102.15Z" transform="translate(-3 -4)"/><path class="cls-28" d="M109.24,80.78a2.5,2.5,0,1,0-2.5-2.5A2.5,2.5,0,0,0,109.24,80.78Z" transform="translate(-3 -4)"/><circle class="cls-29" cx="106.24" cy="47.99" r="2.62"/><path class="cls-30" d="M116,43.23a2.56,2.56,0,0,0,5,.8A45.67,45.67,0,0,0,117.31,41,2.54,2.54,0,0,0,116,43.23Z" transform="translate(-3 -4)"/><path class="cls-31" d="M102.53,78.28a1.86,1.86,0,0,0,0-.34l-3.33,2.77a2.63,2.63,0,0,0,.8.14A2.57,2.57,0,0,0,102.53,78.28Z" transform="translate(-3 -4)"/><path class="cls-32" d="M111.5,62a2.48,2.48,0,0,0,.32-1.21,2.58,2.58,0,1,0-4,2.11l1-.77A3,3,0,0,1,111.5,62Z" transform="translate(-3 -4)"/><path class="cls-33" d="M16.46,38.19a3.73,3.73,0,1,0-3.73-3.72A3.71,3.71,0,0,0,16.46,38.19Z" transform="translate(-3 -4)"/><path class="cls-34" d="M20,52a3.51,3.51,0,1,0-3.51,3.51A3.51,3.51,0,0,0,20,52Z" transform="translate(-3 -4)"/><path class="cls-35" d="M35,75.24a3,3,0,1,0,3.05,3A3,3,0,0,0,35,75.24Z" transform="translate(-3 -4)"/><path class="cls-36" d="M25.74,66.3A3.22,3.22,0,1,0,29,69.52,3.22,3.22,0,0,0,25.74,66.3Z" transform="translate(-3 -4)"/><path class="cls-37" d="M25.74,75.17a3.11,3.11,0,0,0-2.91,2,12.42,12.42,0,0,1,3.87,4,3.11,3.11,0,0,0-1-6.06Z" transform="translate(-3 -4)"/><circle class="cls-38" cx="32.01" cy="65.52" r="3.14"/><circle class="cls-39" cx="13.46" cy="56.76" r="3.4"/><circle class="cls-40" cx="32.01" cy="56.76" r="3.24"/><path class="cls-41" d="M28.75,87a2.92,2.92,0,0,0-.49-1.62,12.64,12.64,0,0,1,.2,2.15c0,.27,0,.54,0,.81A3,3,0,0,0,28.75,87Z" transform="translate(-3 -4)"/><path class="cls-42" d="M27.12,31.12a3.58,3.58,0,0,0-1.38-.28,3.62,3.62,0,0,0-3.63,3.63,4.75,4.75,0,0,0,.05.53A12.35,12.35,0,0,1,27.12,31.12Z" transform="translate(-3 -4)"/><path class="cls-43" d="M25.74,13.11a3.83,3.83,0,1,0,3.83,3.83A3.84,3.84,0,0,0,25.74,13.11Z" transform="translate(-3 -4)"/><path class="cls-44" d="M16.46,39.61a3.62,3.62,0,1,0,3.35,5,13,13,0,0,1-.19-2.08c0-.3,0-.6.05-.9A3.61,3.61,0,0,0,16.46,39.61Z" transform="translate(-3 -4)"/><path class="cls-45" d="M35,55.32a3.34,3.34,0,0,0,3.09-2.07,12.28,12.28,0,0,1-4.87,1.55A3.31,3.31,0,0,0,35,55.32Z" transform="translate(-3 -4)"/><path class="cls-46" d="M25.74,22a3.73,3.73,0,1,0,3.72,3.72A3.73,3.73,0,0,0,25.74,22Z" transform="translate(-3 -4)"/><path class="cls-47" d="M22.63,50.57A3.36,3.36,0,0,0,22.31,52a3.42,3.42,0,0,0,6,2.3A12.42,12.42,0,0,1,22.63,50.57Z" transform="translate(-3 -4)"/><path class="cls-48" d="M25.74,57.44a3.32,3.32,0,1,0,3.31,3.32A3.31,3.31,0,0,0,25.74,57.44Z" transform="translate(-3 -4)"/><path class="cls-49" d="M35,101.81a2.76,2.76,0,1,0,2.76,2.76A2.76,2.76,0,0,0,35,101.81Z" transform="translate(-3 -4)"/><path class="cls-50" d="M81.41,11.37a3.2,3.2,0,1,0-3.2-3.19A3.19,3.19,0,0,0,81.41,11.37Z" transform="translate(-3 -4)"/><path class="cls-51" d="M93.26,6.52a3,3,0,0,0-4.93-.29C90,6.28,91.63,6.37,93.26,6.52Z" transform="translate(-3 -4)"/><path class="cls-52" d="M74.75,10.18a3.24,3.24,0,0,0,.7-2,3.31,3.31,0,0,0-6.59-.48A12.29,12.29,0,0,1,74.75,10.18Z" transform="translate(-3 -4)"/><path class="cls-53" d="M118.52,10.88a2.71,2.71,0,1,0-2.7-2.7A2.7,2.7,0,0,0,118.52,10.88Z" transform="translate(-3 -4)"/><path class="cls-54" d="M66.23,7.62A3.43,3.43,0,1,0,59.91,10,12.33,12.33,0,0,1,66.23,7.62Z" transform="translate(-3 -4)"/><path class="cls-55" d="M111.16,10.25a2.83,2.83,0,1,0-4.75-2.07,2.93,2.93,0,0,0,.09.67C108.08,9.27,109.62,9.74,111.16,10.25Z" transform="translate(-3 -4)"/><path class="cls-56" d="M102.89,8a2.94,2.94,0,0,0-5.62-1C99.16,7.26,101,7.6,102.89,8Z" transform="translate(-3 -4)"/><path class="cls-57" d="M37.31,140.19a12.18,12.18,0,0,1-3.77,1.28A2.32,2.32,0,0,0,35,142,2.36,2.36,0,0,0,37.31,140.19Z" transform="translate(-3 -4)"/><path class="cls-58" d="M127.8,10.76a2.58,2.58,0,1,0-2.58-2.58A2.59,2.59,0,0,0,127.8,10.76Z" transform="translate(-3 -4)"/><circle class="cls-59" cx="32.01" cy="109.33" r="2.66"/><path class="cls-60" d="M35,12A3.81,3.81,0,1,0,31.2,8.18,3.81,3.81,0,0,0,35,12Z" transform="translate(-3 -4)"/><path class="cls-61" d="M35,93a2.86,2.86,0,1,0,2.86,2.86A2.86,2.86,0,0,0,35,93Z" transform="translate(-3 -4)"/><path class="cls-62" d="M35,22.09a3.62,3.62,0,1,0,3.62,3.61A3.62,3.62,0,0,0,35,22.09Z" transform="translate(-3 -4)"/><path class="cls-63" d="M35,84.1A2.95,2.95,0,1,0,38,87,2.95,2.95,0,0,0,35,84.1Z" transform="translate(-3 -4)"/><path class="cls-64" d="M35,13.23a3.72,3.72,0,1,0,3.72,3.71A3.71,3.71,0,0,0,35,13.23Z" transform="translate(-3 -4)"/><path class="cls-65" d="M16.46,72.81a3.29,3.29,0,1,0-3.29-3.29A3.29,3.29,0,0,0,16.46,72.81Z" transform="translate(-3 -4)"/><path class="cls-66" d="M72.13,40.18a3,3,0,1,0,3,3A3.06,3.06,0,0,0,72.13,40.18Z" transform="translate(-3 -4)"/><path class="cls-67" d="M59.63,34.47a3.22,3.22,0,0,0,6.43,0,3.18,3.18,0,0,0-1-2.34,12.46,12.46,0,0,1-2.77-.82A3.21,3.21,0,0,0,59.63,34.47Z" transform="translate(-3 -4)"/><path class="cls-68" d="M62.85,119.63a2.47,2.47,0,1,0,2.46,2.47A2.48,2.48,0,0,0,62.85,119.63Z" transform="translate(-3 -4)"/><path class="cls-69" d="M62.85,128.47a2.39,2.39,0,1,0,2.39,2.39A2.39,2.39,0,0,0,62.85,128.47Z" transform="translate(-3 -4)"/><path class="cls-70" d="M72.13,49a3,3,0,1,0,3,3A3,3,0,0,0,72.13,49Z" transform="translate(-3 -4)"/><circle class="cls-71" cx="69.13" cy="56.76" r="2.91"/><circle class="cls-72" cx="69.13" cy="65.52" r="2.84"/><path class="cls-73" d="M62.85,48.93A3.07,3.07,0,1,0,65.91,52,3.07,3.07,0,0,0,62.85,48.93Z" transform="translate(-3 -4)"/><path class="cls-74" d="M62.85,75.44a2.84,2.84,0,1,0,2.84,2.84A2.84,2.84,0,0,0,62.85,75.44Z" transform="translate(-3 -4)"/><circle class="cls-75" cx="59.85" cy="65.52" r="2.92"/><circle class="cls-76" cx="59.85" cy="56.76" r="2.99"/><path class="cls-77" d="M62.85,102a2.62,2.62,0,1,0,2.61,2.61A2.61,2.61,0,0,0,62.85,102Z" transform="translate(-3 -4)"/><path class="cls-78" d="M62.85,110.79a2.54,2.54,0,1,0,2.54,2.54A2.54,2.54,0,0,0,62.85,110.79Z" transform="translate(-3 -4)"/><path class="cls-79" d="M72.13,84.34a2.71,2.71,0,1,0,2.7,2.7A2.7,2.7,0,0,0,72.13,84.34Z" transform="translate(-3 -4)"/><path class="cls-80" d="M62.85,93.12a2.69,2.69,0,1,0,2.69,2.69A2.68,2.68,0,0,0,62.85,93.12Z" transform="translate(-3 -4)"/><circle class="cls-81" cx="59.85" cy="83.04" r="2.77"/><path class="cls-82" d="M155.63,14.74a2.21,2.21,0,1,0,2.21,2.2A2.19,2.19,0,0,0,155.63,14.74Z" transform="translate(-3 -4)"/><path class="cls-83" d="M148.65,34.47a2.3,2.3,0,0,0-2.3-2.3,2.16,2.16,0,0,0-.91.2c1,1.07,1.95,2.16,2.87,3.28A2.29,2.29,0,0,0,148.65,34.47Z" transform="translate(-3 -4)"/><circle class="cls-84" cx="143.35" cy="12.94" r="2.32"/><path class="cls-85" d="M146.35,23.4a2.31,2.31,0,1,0,2.31,2.3A2.3,2.3,0,0,0,146.35,23.4Z" transform="translate(-3 -4)"/><path class="cls-86" d="M155.63,32.28a2.19,2.19,0,1,0,2.19,2.19A2.19,2.19,0,0,0,155.63,32.28Z" transform="translate(-3 -4)"/><path class="cls-87" d="M164.91,10.27a2.09,2.09,0,1,0-2.09-2.09A2.1,2.1,0,0,0,164.91,10.27Z" transform="translate(-3 -4)"/><circle class="cls-88" cx="69.13" cy="91.81" r="2.64"/><path class="cls-89" d="M155.63,10.39a2.21,2.21,0,1,0-2.21-2.21A2.21,2.21,0,0,0,155.63,10.39Z" transform="translate(-3 -4)"/><path class="cls-90" d="M155.63,23.51a2.2,2.2,0,1,0,2.2,2.19A2.2,2.2,0,0,0,155.63,23.51Z" transform="translate(-3 -4)"/><path class="cls-91" d="M157.82,43.23a2.18,2.18,0,0,0-4.3-.52c.58.88,1.15,1.76,1.69,2.66a2,2,0,0,0,.42,0A2.18,2.18,0,0,0,157.82,43.23Z" transform="translate(-3 -4)"/><circle class="cls-92" cx="69.13" cy="109.33" r="2.5"/><path class="cls-93" d="M72.13,102a2.57,2.57,0,1,0,2.56,2.57A2.57,2.57,0,0,0,72.13,102Z" transform="translate(-3 -4)"/><path class="cls-94" d="M72.13,128.5a2.36,2.36,0,1,0,2.36,2.36A2.36,2.36,0,0,0,72.13,128.5Z" transform="translate(-3 -4)"/><path class="cls-95" d="M146.35,10.51A2.34,2.34,0,1,0,144,8.18,2.33,2.33,0,0,0,146.35,10.51Z" transform="translate(-3 -4)"/><path class="cls-96" d="M69,34.47a3.12,3.12,0,1,0,3.12-3.12l-.2,0a11.75,11.75,0,0,1-1.55.52A3.13,3.13,0,0,0,69,34.47Z" transform="translate(-3 -4)"/><path class="cls-97" d="M72.13,119.67a2.43,2.43,0,1,0,2.43,2.43A2.42,2.42,0,0,0,72.13,119.67Z" transform="translate(-3 -4)"/><path class="cls-98" d="M72.13,75.51a2.77,2.77,0,1,0,2.77,2.77A2.77,2.77,0,0,0,72.13,75.51Z" transform="translate(-3 -4)"/><path class="cls-99" d="M102.72,43.23A2.76,2.76,0,1,0,100,46,2.76,2.76,0,0,0,102.72,43.23Z" transform="translate(-3 -4)"/><circle class="cls-100" cx="96.96" cy="47.99" r="2.71"/><circle class="cls-101" cx="96.96" cy="126.86" r="2.28"/><path class="cls-102" d="M109.24,119.8a2.3,2.3,0,1,0,2.29,2.3A2.29,2.29,0,0,0,109.24,119.8Z" transform="translate(-3 -4)"/><path class="cls-103" d="M109.24,128.61a2.25,2.25,0,1,0,2.25,2.25A2.25,2.25,0,0,0,109.24,128.61Z" transform="translate(-3 -4)"/><path class="cls-104" d="M100,124.42a2.32,2.32,0,0,0,.52-4.59l-2.84,2.34A2.32,2.32,0,0,0,100,124.42Z" transform="translate(-3 -4)"/><path class="cls-105" d="M62.85,40.09A3.14,3.14,0,1,0,66,43.23,3.14,3.14,0,0,0,62.85,40.09Z" transform="translate(-3 -4)"/><path class="cls-106" d="M118.52,49.46A2.54,2.54,0,1,0,121.05,52,2.53,2.53,0,0,0,118.52,49.46Z" transform="translate(-3 -4)"/><path class="cls-107" d="M109.24,115.67a2.33,2.33,0,0,0,1.39-4.21l-3.49,2.88A2.34,2.34,0,0,0,109.24,115.67Z" transform="translate(-3 -4)"/><path class="cls-108" d="M118.52,80.71a2.43,2.43,0,1,0-2.43-2.43A2.43,2.43,0,0,0,118.52,80.71Z" transform="translate(-3 -4)"/><path class="cls-109" d="M118.52,72a2.47,2.47,0,1,0-2.47-2.46A2.46,2.46,0,0,0,118.52,72Z" transform="translate(-3 -4)"/><path class="cls-110" d="M100,63.42a2.67,2.67,0,1,0-2.66-2.66A2.66,2.66,0,0,0,100,63.42Z" transform="translate(-3 -4)"/><circle class="cls-111" cx="115.52" cy="56.76" r="2.5"/><path class="cls-112" d="M118.52,89.44a2.4,2.4,0,1,0-2.4-2.4A2.4,2.4,0,0,0,118.52,89.44Z" transform="translate(-3 -4)"/><path class="cls-113" d="M127.8,93.5a2.31,2.31,0,1,0,2.3,2.31A2.3,2.3,0,0,0,127.8,93.5Z" transform="translate(-3 -4)"/><path class="cls-114" d="M127.8,111.08a2.26,2.26,0,1,0,2.25,2.25A2.26,2.26,0,0,0,127.8,111.08Z" transform="translate(-3 -4)"/><circle class="cls-115" cx="134.08" cy="12.94" r="2.44"/><path class="cls-116" d="M127.8,102.29a2.28,2.28,0,1,0,2.28,2.28A2.28,2.28,0,0,0,127.8,102.29Z" transform="translate(-3 -4)"/><path class="cls-117" d="M62.85,137.31a2.31,2.31,0,0,0-2.32,2.31,2.34,2.34,0,0,0,.87,1.8,12.14,12.14,0,0,1,3.67-1.18,2.51,2.51,0,0,0,.09-.62A2.3,2.3,0,0,0,62.85,137.31Z" transform="translate(-3 -4)"/><path class="cls-118" d="M74.42,139.62a2.3,2.3,0,0,0-4.59,0,2.27,2.27,0,0,0,.16.83,12.25,12.25,0,0,1,3.11,1.24A2.29,2.29,0,0,0,74.42,139.62Z" transform="translate(-3 -4)"/><path class="cls-119" d="M84.54,16.94a3.13,3.13,0,0,0-5.86-1.52,12.42,12.42,0,0,1,.84,4,3.12,3.12,0,0,0,5-2.49Z" transform="translate(-3 -4)"/><path class="cls-120" d="M118.52,111a2.3,2.3,0,1,0,2.29,2.29A2.3,2.3,0,0,0,118.52,111Z" transform="translate(-3 -4)"/><path class="cls-121" d="M118.52,106.9a2.32,2.32,0,0,0,2-3.56l-3.56,2.93A2.32,2.32,0,0,0,118.52,106.9Z" transform="translate(-3 -4)"/><path class="cls-122" d="M118.52,119.84a2.26,2.26,0,1,0,2.26,2.26A2.26,2.26,0,0,0,118.52,119.84Z" transform="translate(-3 -4)"/><path class="cls-123" d="M125.35,52a2.45,2.45,0,0,0,2.45,2.45,2.42,2.42,0,0,0,1.76-.76c-1-1.31-2-2.58-3-3.77A2.44,2.44,0,0,0,125.35,52Z" transform="translate(-3 -4)"/><circle class="cls-124" cx="124.8" cy="65.52" r="2.39"/><path class="cls-125" d="M127.8,75.92a2.36,2.36,0,1,0,2.36,2.36A2.37,2.37,0,0,0,127.8,75.92Z" transform="translate(-3 -4)"/><circle class="cls-126" cx="124.8" cy="83.04" r="2.33"/><circle class="cls-127" cx="124.8" cy="56.76" r="2.42"/><circle class="cls-128" cx="4.18" cy="153.15" r="2.21"/><path class="cls-129" d="M118.52,163.82a2.09,2.09,0,1,0,2.09,2.09A2.1,2.1,0,0,0,118.52,163.82Z" transform="translate(-3 -4)"/><path class="cls-130" d="M81.41,84.4A2.65,2.65,0,1,0,84.05,87,2.65,2.65,0,0,0,81.41,84.4Z" transform="translate(-3 -4)"/><path class="cls-131" d="M81.41,93.23A2.58,2.58,0,1,0,84,95.81,2.58,2.58,0,0,0,81.41,93.23Z" transform="translate(-3 -4)"/><path class="cls-132" d="M81.41,75.58a2.71,2.71,0,1,0,2.7,2.7A2.7,2.7,0,0,0,81.41,75.58Z" transform="translate(-3 -4)"/><path class="cls-133" d="M81.41,102.05a2.52,2.52,0,1,0,2.51,2.52A2.52,2.52,0,0,0,81.41,102.05Z" transform="translate(-3 -4)"/><path class="cls-134" d="M81.41,110.88a2.46,2.46,0,1,0,2.45,2.45A2.46,2.46,0,0,0,81.41,110.88Z" transform="translate(-3 -4)"/><circle class="cls-135" cx="78.41" cy="126.86" r="2.33"/><path class="cls-136" d="M81.41,119.7a2.4,2.4,0,1,0,2.39,2.4A2.39,2.39,0,0,0,81.41,119.7Z" transform="translate(-3 -4)"/><path class="cls-137" d="M81.41,40.28a3,3,0,1,0,2.94,2.95A2.95,2.95,0,0,0,81.41,40.28Z" transform="translate(-3 -4)"/><path class="cls-138" d="M81.41,22.63A3.07,3.07,0,0,0,78.87,24c-.14.4-.3.79-.48,1.18a3.31,3.31,0,0,0-.06.54,3.08,3.08,0,1,0,3.08-3.07Z" transform="translate(-3 -4)"/><path class="cls-139" d="M98.53,167.43A2.11,2.11,0,0,0,100,168a2.07,2.07,0,0,0,1.86-1.16C100.74,167.06,99.64,167.25,98.53,167.43Z" transform="translate(-3 -4)"/><path class="cls-140" d="M107.19,165.56a2,2,0,0,0,0,.35,2.09,2.09,0,0,0,4.18,0,2.06,2.06,0,0,0-.57-1.42C109.58,164.87,108.39,165.23,107.19,165.56Z" transform="translate(-3 -4)"/><circle class="cls-141" cx="50.57" cy="65.52" r="2.99"/><circle class="cls-142" cx="78.41" cy="30.47" r="3.01"/><circle class="cls-143" cx="78.41" cy="56.76" r="2.83"/><circle class="cls-144" cx="78.41" cy="135.62" r="2.27"/><circle class="cls-145" cx="78.41" cy="65.52" r="2.77"/><path class="cls-146" d="M53.57,115.91A2.58,2.58,0,1,0,51,113.33,2.57,2.57,0,0,0,53.57,115.91Z" transform="translate(-3 -4)"/><path class="cls-147" d="M53.57,124.6a2.5,2.5,0,1,0-2.5-2.5A2.5,2.5,0,0,0,53.57,124.6Z" transform="translate(-3 -4)"/><circle class="cls-148" cx="50.57" cy="135.62" r="2.33"/><path class="cls-149" d="M53.57,133.28a2.42,2.42,0,1,0-2.42-2.42A2.42,2.42,0,0,0,53.57,133.28Z" transform="translate(-3 -4)"/><circle class="cls-150" cx="50.57" cy="100.57" r="2.66"/><path class="cls-151" d="M53.57,81.19a2.91,2.91,0,1,0-2.91-2.91A2.91,2.91,0,0,0,53.57,81.19Z" transform="translate(-3 -4)"/><circle class="cls-152" cx="50.57" cy="83.04" r="2.83"/><path class="cls-153" d="M53.57,98.55a2.75,2.75,0,1,0-2.74-2.74A2.74,2.74,0,0,0,53.57,98.55Z" transform="translate(-3 -4)"/><path class="cls-154" d="M81.41,163.82a2.09,2.09,0,1,0,2.08,2.09A2.09,2.09,0,0,0,81.41,163.82Z" transform="translate(-3 -4)"/><path class="cls-155" d="M72.13,163.82a1.86,1.86,0,0,0-.34,0l-.73.26a2.08,2.08,0,1,0,1.07-.3Z" transform="translate(-3 -4)"/><path class="cls-156" d="M53.57,150.64a2.19,2.19,0,0,0,1.26-.39,12,12,0,0,1,.82-2.73,2.25,2.25,0,1,0-2.08,3.12Z" transform="translate(-3 -4)"/><path class="cls-157" d="M81.41,155a2.15,2.15,0,1,0,2.15,2.15A2.16,2.16,0,0,0,81.41,155Z" transform="translate(-3 -4)"/><path class="cls-158" d="M81.41,146.17a2.22,2.22,0,1,0,2.21,2.21A2.21,2.21,0,0,0,81.41,146.17Z" transform="translate(-3 -4)"/><path class="cls-159" d="M53.57,159.32a2.17,2.17,0,0,0,2.14-1.83,12.72,12.72,0,0,1-.68-1.94,2.15,2.15,0,0,0-1.46-.57,2.17,2.17,0,0,0,0,4.34Z" transform="translate(-3 -4)"/><path class="cls-160" d="M62.32,163.9a2.08,2.08,0,0,0,.53,4.1,2.1,2.1,0,0,0,2.09-2.09,2.05,2.05,0,0,0-.52-1.36A13.14,13.14,0,0,1,62.32,163.9Z" transform="translate(-3 -4)"/><path class="cls-161" d="M53.57,163.82a2.09,2.09,0,1,0,2.09,2.09A2.1,2.1,0,0,0,53.57,163.82Z" transform="translate(-3 -4)"/><path class="cls-162" d="M81.41,49.1A2.89,2.89,0,1,0,84.29,52,2.89,2.89,0,0,0,81.41,49.1Z" transform="translate(-3 -4)"/><path class="cls-163" d="M166.15,76.61c.14,1,.26,2,.35,3a2.06,2.06,0,0,0-.35-3Z" transform="translate(-3 -4)"/><path class="cls-164" d="M166.23,97.42a2.07,2.07,0,0,0,.31-2.91C166.45,95.49,166.35,96.45,166.23,97.42Z" transform="translate(-3 -4)"/><path class="cls-165" d="M164.91,111.24a2.09,2.09,0,1,0,2.09,2.09A2.1,2.1,0,0,0,164.91,111.24Z" transform="translate(-3 -4)"/><path class="cls-166" d="M166.88,87.3h0c0,.16,0,.31,0,.46A2.09,2.09,0,0,0,167,87a2.14,2.14,0,0,0-.15-.76C166.86,86.62,166.88,87,166.88,87.3Z" transform="translate(-3 -4)"/><path class="cls-167" d="M165.43,102.55c-.27,1.37-.56,2.73-.89,4.07a2.21,2.21,0,0,0,.37,0,2.09,2.09,0,0,0,.52-4.11Z" transform="translate(-3 -4)"/><path class="cls-168" d="M164.91,137.53a2.09,2.09,0,1,0,2.09,2.09A2.1,2.1,0,0,0,164.91,137.53Z" transform="translate(-3 -4)"/><path class="cls-169" d="M164.91,146.3a2.09,2.09,0,1,0,2.09,2.08A2.09,2.09,0,0,0,164.91,146.3Z" transform="translate(-3 -4)"/><circle class="cls-170" cx="161.91" cy="126.86" r="2.09"/><path class="cls-171" d="M164.91,120A2.09,2.09,0,1,0,167,122.1,2.09,2.09,0,0,0,164.91,120Z" transform="translate(-3 -4)"/><path class="cls-172" d="M164.91,32.38A2.09,2.09,0,1,0,167,34.47,2.09,2.09,0,0,0,164.91,32.38Z" transform="translate(-3 -4)"/><path class="cls-173" d="M164.91,23.61A2.09,2.09,0,1,0,167,25.7,2.1,2.1,0,0,0,164.91,23.61Z" transform="translate(-3 -4)"/><path class="cls-174" d="M164.91,14.85A2.09,2.09,0,1,0,167,16.94,2.1,2.1,0,0,0,164.91,14.85Z" transform="translate(-3 -4)"/><circle class="cls-175" cx="161.91" cy="56.76" r="2.09"/><circle class="cls-176" cx="161.91" cy="39.23" r="2.09"/><path class="cls-177" d="M164.91,67.43a1.91,1.91,0,0,0-.48.06c.34,1.34.64,2.7.91,4.07a2.09,2.09,0,0,0-.43-4.13Z" transform="translate(-3 -4)"/><path class="cls-178" d="M164.91,49.9A2.09,2.09,0,1,0,167,52,2.1,2.1,0,0,0,164.91,49.9Z" transform="translate(-3 -4)"/><path class="cls-179" d="M146.35,146.27a2.12,2.12,0,1,0,2.12,2.11A2.12,2.12,0,0,0,146.35,146.27Z" transform="translate(-3 -4)"/><path class="cls-180" d="M146.35,163.82a2.09,2.09,0,1,0,2.09,2.09A2.1,2.1,0,0,0,146.35,163.82Z" transform="translate(-3 -4)"/><path class="cls-181" d="M136.64,150.47a2.12,2.12,0,0,0,.44.05,2.14,2.14,0,0,0,2.13-2.14s0,0,0-.07C138.36,149.05,137.51,149.77,136.64,150.47Z" transform="translate(-3 -4)"/><path class="cls-182" d="M146.35,155.05a2.1,2.1,0,1,0,2.11,2.1A2.1,2.1,0,0,0,146.35,155.05Z" transform="translate(-3 -4)"/><path class="cls-183" d="M137.08,163.82a2.09,2.09,0,1,0,2.08,2.09A2.09,2.09,0,0,0,137.08,163.82Z" transform="translate(-3 -4)"/><circle class="cls-184" cx="134.08" cy="153.15" r="2.11"/><path class="cls-185" d="M125.81,157.85a2.11,2.11,0,1,0,3.53-2.14C128.19,156.45,127,157.16,125.81,157.85Z" transform="translate(-3 -4)"/><path class="cls-186" d="M127.8,163.82a2.09,2.09,0,1,0,2.09,2.09A2.09,2.09,0,0,0,127.8,163.82Z" transform="translate(-3 -4)"/><circle class="cls-187" cx="152.63" cy="153.15" r="2.1"/><path class="cls-188" d="M145.93,141.71a2,2,0,0,0,.42,0,2.13,2.13,0,0,0,2.13-2.13,2.08,2.08,0,0,0-.13-.71C147.57,139.86,146.76,140.79,145.93,141.71Z" transform="translate(-3 -4)"/><path class="cls-189" d="M155.63,128.74l-.14,0c-.59,1-1.2,1.94-1.82,2.89a2.12,2.12,0,1,0,2-2.91Z" transform="translate(-3 -4)"/><path class="cls-190" d="M164.91,163.82a2.09,2.09,0,1,0,2.09,2.09A2.1,2.1,0,0,0,164.91,163.82Z" transform="translate(-3 -4)"/><circle class="cls-191" cx="152.63" cy="135.62" r="2.11"/><path class="cls-192" d="M155.63,163.82a2.09,2.09,0,1,0,2.09,2.09A2.1,2.1,0,0,0,155.63,163.82Z" transform="translate(-3 -4)"/><path class="cls-193" d="M155.63,146.28a2.11,2.11,0,1,0,2.11,2.1A2.1,2.1,0,0,0,155.63,146.28Z" transform="translate(-3 -4)"/><circle class="cls-194" cx="161.91" cy="153.15" r="2.09"/><circle class="cls-195" cx="13.46" cy="4.18" r="4.06"/><path class="cls-196" d="M7.18,119.43a2.67,2.67,0,1,0,2.67,2.67A2.66,2.66,0,0,0,7.18,119.43Z" transform="translate(-3 -4)"/><path class="cls-197" d="M7.18,128.31a2.55,2.55,0,1,0,2.55,2.55A2.56,2.56,0,0,0,7.18,128.31Z" transform="translate(-3 -4)"/><path class="cls-198" d="M7.18,137.18a2.44,2.44,0,1,0,2.44,2.44A2.44,2.44,0,0,0,7.18,137.18Z" transform="translate(-3 -4)"/><path class="cls-199" d="M7.18,110.55A2.79,2.79,0,1,0,10,113.33,2.78,2.78,0,0,0,7.18,110.55Z" transform="translate(-3 -4)"/><path class="cls-200" d="M7.18,98.83a3,3,0,0,0,2.15-.91,12.42,12.42,0,0,1-4.09-4.4,3,3,0,0,0-1.08,2.29A3,3,0,0,0,7.18,98.83Z" transform="translate(-3 -4)"/><path class="cls-201" d="M7.18,101.67a2.9,2.9,0,1,0,2.9,2.9A2.9,2.9,0,0,0,7.18,101.67Z" transform="translate(-3 -4)"/><circle class="cls-202" cx="4.18" cy="144.38" r="2.32"/><path class="cls-203" d="M7.18,163.82a2.09,2.09,0,1,0,2.09,2.09A2.09,2.09,0,0,0,7.18,163.82Z" transform="translate(-3 -4)"/><path class="cls-204" d="M16.46,124.73a2.64,2.64,0,1,0-2.64-2.63A2.63,2.63,0,0,0,16.46,124.73Z" transform="translate(-3 -4)"/><circle class="cls-205" cx="13.46" cy="153.15" r="2.2"/><path class="cls-206" d="M16.46,146.08a2.31,2.31,0,1,0,2.3,2.3A2.3,2.3,0,0,0,16.46,146.08Z" transform="translate(-3 -4)"/><path class="cls-207" d="M16.46,137.21a2.42,2.42,0,1,0,2.41,2.41A2.41,2.41,0,0,0,16.46,137.21Z" transform="translate(-3 -4)"/><circle class="cls-208" cx="13.46" cy="126.86" r="2.53"/><path class="cls-209" d="M16.46,163.82a2.09,2.09,0,1,0,2.09,2.09A2.09,2.09,0,0,0,16.46,163.82Z" transform="translate(-3 -4)"/><path class="cls-210" d="M16.46,116.08a2.75,2.75,0,1,0-2.75-2.75A2.75,2.75,0,0,0,16.46,116.08Z" transform="translate(-3 -4)"/><path class="cls-211" d="M16.46,107.42a2.85,2.85,0,1,0-2.86-2.85A2.85,2.85,0,0,0,16.46,107.42Z" transform="translate(-3 -4)"/><path class="cls-212" d="M7.18,64.24A3.49,3.49,0,1,0,3.7,60.76,3.48,3.48,0,0,0,7.18,64.24Z" transform="translate(-3 -4)"/><path class="cls-213" d="M25.74,98.72a2.91,2.91,0,0,0,1.34-5.48,12.48,12.48,0,0,1-3.68,4.29A2.9,2.9,0,0,0,25.74,98.72Z" transform="translate(-3 -4)"/><path class="cls-214" d="M7.18,55.59A3.6,3.6,0,1,0,3.58,52,3.6,3.6,0,0,0,7.18,55.59Z" transform="translate(-3 -4)"/><path class="cls-215" d="M25.74,110.63a2.71,2.71,0,1,0,2.7,2.7A2.7,2.7,0,0,0,25.74,110.63Z" transform="translate(-3 -4)"/><path class="cls-216" d="M25.74,101.76a2.81,2.81,0,1,0,2.8,2.81A2.81,2.81,0,0,0,25.74,101.76Z" transform="translate(-3 -4)"/><path class="cls-217" d="M16.46,13a4,4,0,1,0,3.94,4A4,4,0,0,0,16.46,13Z" transform="translate(-3 -4)"/><path class="cls-218" d="M17.44,75.27a3.2,3.2,0,0,0-1-.17,3.6,3.6,0,0,0-.81.11l.44,0A12.22,12.22,0,0,1,17.44,75.27Z" transform="translate(-3 -4)"/><path class="cls-219" d="M10,76.78A3.21,3.21,0,0,0,7.18,75a3.24,3.24,0,0,0-1.62,6A12.48,12.48,0,0,1,10,76.78Z" transform="translate(-3 -4)"/><path class="cls-220" d="M7.18,72.88a3.37,3.37,0,1,0-3.37-3.36A3.35,3.35,0,0,0,7.18,72.88Z" transform="translate(-3 -4)"/><path class="cls-221" d="M7.18,29.65A3.95,3.95,0,1,0,3.23,25.7,3.94,3.94,0,0,0,7.18,29.65Z" transform="translate(-3 -4)"/><path class="cls-222" d="M7.18,38.3a3.83,3.83,0,1,0-3.83-3.83A3.84,3.84,0,0,0,7.18,38.3Z" transform="translate(-3 -4)"/><path class="cls-223" d="M7.18,46.94a3.71,3.71,0,1,0-3.72-3.71A3.71,3.71,0,0,0,7.18,46.94Z" transform="translate(-3 -4)"/><path class="cls-224" d="M7.18,12.36A4.18,4.18,0,1,0,3,8.18,4.18,4.18,0,0,0,7.18,12.36Z" transform="translate(-3 -4)"/><path class="cls-225" d="M20.29,25.7a3.84,3.84,0,1,0-3.83,3.84A3.83,3.83,0,0,0,20.29,25.7Z" transform="translate(-3 -4)"/><circle class="cls-226" cx="22.74" cy="4.18" r="3.93"/><circle class="cls-227" cx="4.18" cy="12.94" r="4.06"/><path class="cls-228" d="M53.57,20.42a3.38,3.38,0,0,0,1.24-.24c0-.07,0-.15,0-.23a12.22,12.22,0,0,1,1.27-5.43,3.48,3.48,0,1,0-2.5,5.9Z" transform="translate(-3 -4)"/><path class="cls-229" d="M44.29,31.05a3.41,3.41,0,0,0-3.37,2.89,12.17,12.17,0,0,1,2.51,3.83,3.5,3.5,0,0,0,.86.12,3.42,3.42,0,1,0,0-6.84Z" transform="translate(-3 -4)"/><path class="cls-230" d="M44.29,39.9l-.19,0a12.8,12.8,0,0,1,.27,2.57,12.36,12.36,0,0,1-.68,4,3.05,3.05,0,0,0,.6.06,3.33,3.33,0,0,0,0-6.66Z" transform="translate(-3 -4)"/><path class="cls-231" d="M44.29,22.19A3.51,3.51,0,1,0,47.8,25.7,3.51,3.51,0,0,0,44.29,22.19Z" transform="translate(-3 -4)"/><path class="cls-232" d="M44.29,48.75a3.25,3.25,0,0,0-2.19.86,7.84,7.84,0,0,1-.66.86,3.23,3.23,0,1,0,2.85-1.72Z" transform="translate(-3 -4)"/><circle class="cls-233" cx="41.29" cy="12.94" r="3.6"/><path class="cls-234" d="M44.29,75.3a3,3,0,1,0,3,3A3,3,0,0,0,44.29,75.3Z" transform="translate(-3 -4)"/><circle class="cls-235" cx="41.29" cy="65.52" r="3.07"/><path class="cls-236" d="M44.29,57.6a3.16,3.16,0,1,0,3.16,3.16A3.15,3.15,0,0,0,44.29,57.6Z" transform="translate(-3 -4)"/><path class="cls-237" d="M44.29,4.49A3.69,3.69,0,1,0,48,8.18,3.69,3.69,0,0,0,44.29,4.49Z" transform="translate(-3 -4)"/><path class="cls-238" d="M53.57,37.79a3.32,3.32,0,1,0-3.32-3.32A3.32,3.32,0,0,0,53.57,37.79Z" transform="translate(-3 -4)"/><path class="cls-239" d="M44.29,84.16A2.89,2.89,0,1,0,47.18,87,2.89,2.89,0,0,0,44.29,84.16Z" transform="translate(-3 -4)"/><path class="cls-240" d="M53.57,55.15A3.16,3.16,0,1,0,50.42,52,3.16,3.16,0,0,0,53.57,55.15Z" transform="translate(-3 -4)"/><circle class="cls-241" cx="50.57" cy="39.23" r="3.24"/><path class="cls-242" d="M53.57,29.1a3.4,3.4,0,0,0,3.24-2.41,12,12,0,0,1-1.69-4,3.39,3.39,0,1,0-1.55,6.41Z" transform="translate(-3 -4)"/><circle class="cls-243" cx="50.57" cy="4.18" r="3.56"/><path class="cls-244" d="M53.57,63.83a3.08,3.08,0,1,0-3.07-3.07A3.07,3.07,0,0,0,53.57,63.83Z" transform="translate(-3 -4)"/><path class="cls-245" d="M35,155a2.19,2.19,0,1,0,2.19,2.19A2.19,2.19,0,0,0,35,155Z" transform="translate(-3 -4)"/><path class="cls-246" d="M25.74,142a2.38,2.38,0,0,0,1.91-1,12.16,12.16,0,0,1-4.14-2.29,2.24,2.24,0,0,0-.17.86A2.39,2.39,0,0,0,25.74,142Z" transform="translate(-3 -4)"/><path class="cls-247" d="M35,146.1a2.29,2.29,0,1,0,2.28,2.28A2.29,2.29,0,0,0,35,146.1Z" transform="translate(-3 -4)"/><path class="cls-248" d="M35,163.82a2.09,2.09,0,1,0,2.09,2.09A2.1,2.1,0,0,0,35,163.82Z" transform="translate(-3 -4)"/><path class="cls-249" d="M44.29,93a2.8,2.8,0,1,0,2.8,2.8A2.8,2.8,0,0,0,44.29,93Z" transform="translate(-3 -4)"/><path class="cls-250" d="M25.74,163.82a2.09,2.09,0,1,0,2.08,2.09A2.09,2.09,0,0,0,25.74,163.82Z" transform="translate(-3 -4)"/><path class="cls-251" d="M44.29,163.82a2.09,2.09,0,1,0,2.09,2.09A2.1,2.1,0,0,0,44.29,163.82Z" transform="translate(-3 -4)"/><circle class="cls-252" cx="22.74" cy="153.15" r="2.19"/><path class="cls-253" d="M25.74,146.09A2.3,2.3,0,1,0,28,148.38,2.3,2.3,0,0,0,25.74,146.09Z" transform="translate(-3 -4)"/><circle class="cls-254" cx="41.29" cy="109.33" r="2.62"/><path class="cls-255" d="M44.29,119.56a2.54,2.54,0,0,0-2.53,2.54,2.33,2.33,0,0,0,0,.38,12.61,12.61,0,0,1,.84,1.53,2.53,2.53,0,1,0,1.65-4.45Z" transform="translate(-3 -4)"/><path class="cls-256" d="M44.29,101.86A2.71,2.71,0,1,0,47,104.57,2.71,2.71,0,0,0,44.29,101.86Z" transform="translate(-3 -4)"/><path class="cls-257" d="M44.29,155a2.18,2.18,0,1,0,2.18,2.18A2.19,2.19,0,0,0,44.29,155Z" transform="translate(-3 -4)"/><path class="cls-258" d="M44.29,128.41a2.63,2.63,0,0,0-.49.05c0,.28,0,.55,0,.83a12.39,12.39,0,0,1-.59,3.77,2.44,2.44,0,1,0,1-4.65Z" transform="translate(-3 -4)"/><path class="cls-259" d="M44.29,146.12a2.27,2.27,0,1,0,2.27,2.26A2.26,2.26,0,0,0,44.29,146.12Z" transform="translate(-3 -4)"/><path class="cls-260" d="M44.29,137.27a2.36,2.36,0,1,0,2.36,2.35A2.35,2.35,0,0,0,44.29,137.27Z" transform="translate(-3 -4)"/><path class="cls-261" d="M175.88,87.3h0A81.13,81.13,0,0,1,93.5,168.43h0V47.85h0a30.41,30.41,0,0,1,4.68.94c2.71.76,2.6,2.07,2.57,3.06-.19,5.91-5.31,21.05,0,23.63,4.86,2.36,12.66-10.14,17-13.38,1-.75,2.12-1.5,4.87,1.38s1.11,4.3.13,5.12c-5.46,4.61-19,11.79-22,18.25-2.63,5.6-5.59,22.09,0,24.75,6.23,3,16.29-12.83,21.5-17.37,1.55-1.36,4.25-4,8.25.37a5.4,5.4,0,0,1-.13,8h0s-25.74,15.88-29.87,24.63c-1.68,3.56-3.06,13.27,0,15.75,7.85,6.35,24.82-5.3,35.78-18.73s16.62-31.47,13.43-47.73S130.62,42.58,123.2,39a100.84,100.84,0,0,1-20.86-13.79c-5.66-4.71-8.24-6.38-8.74-19.08h1.14A81.14,81.14,0,0,1,175.88,87.3ZM77.78,7.68A12.37,12.37,0,1,0,88.45,18.34,12.38,12.38,0,0,0,77.78,7.68ZM42.61,30.22A12.38,12.38,0,1,0,53.27,40.88,12.38,12.38,0,0,0,42.61,30.22Zm-5.25,59A12.38,12.38,0,1,0,26.7,99.84,12.39,12.39,0,0,0,37.36,89.18ZM42.07,117a12.38,12.38,0,1,0,10.67,10.67A12.39,12.39,0,0,0,42.07,117Zm35.54,23.16a12.38,12.38,0,1,0,10.66,10.67A12.38,12.38,0,0,0,77.61,140.17Z" transform="translate(-3 -4)"/></svg>